<?xml version="1.0" encoding="UTF-8"?>
<svg version="1.1" xmlns="http://www.w3.org/2000/svg" width="817" height="305">
<path d="M0 0 C4.62 0 9.24 0 14 0 C21.17584781 14.25324648 28.31872502 28.50708327 35 43 C35.66 43 36.32 43 37 43 C37.35715088 42.23034912 37.71430176 41.46069824 38.08227539 40.66772461 C50.67802009 13.52609654 50.67802009 13.52609654 57 0 C61.62 0 66.24 0 71 0 C71 16.5 71 33 71 50 C66.38 50 61.76 50 57 50 C56.67 45.38 56.34 40.76 56 36 C54.60974609 38.79791016 54.60974609 38.79791016 53.19140625 41.65234375 C52.29465898 43.45278983 51.39789778 45.25322901 50.50073242 47.0534668 C49.87631422 48.30734013 49.25261363 49.56157109 48.62963867 50.81616211 C47.73543835 52.61665615 46.83846419 54.41577175 45.94140625 56.21484375 C45.13231812 57.84087524 45.13231812 57.84087524 44.30688477 59.49975586 C43 62 43 62 42 63 C39.98035801 63.07244053 37.95832876 63.08377188 35.9375 63.0625 C34.28041016 63.04896484 34.28041016 63.04896484 32.58984375 63.03515625 C31.73519531 63.02355469 30.88054687 63.01195312 30 63 C28.06164379 59.29211361 26.12446776 55.58361187 24.1875 51.875 C23.64029297 50.82828125 23.09308594 49.7815625 22.52929688 48.703125 C21.99755859 47.68476563 21.46582031 46.66640625 20.91796875 45.6171875 C20.43094482 44.68503418 19.9439209 43.75288086 19.44213867 42.79248047 C17.93541472 39.8749405 16.46848606 36.93697212 15 34 C14.67 44.23 14.34 54.46 14 65 C9.38 65 4.76 65 0 65 C0 43.55 0 22.1 0 0 Z " fill="#010101" transform="translate(94,91)"/>
<path d="M0 0 C0.99 0 1.98 0 3 0 C4.00380916 2.79035046 5.0031945 5.58214855 6 8.375 C6.42925781 9.56609375 6.42925781 9.56609375 6.8671875 10.78125 C7.13789062 11.54179688 7.40859375 12.30234375 7.6875 13.0859375 C7.93886719 13.7876709 8.19023438 14.4894043 8.44921875 15.21240234 C9 17 9 17 9 19 C7.35 19 5.7 19 4 19 C4.03029297 19.84554443 4.06058594 20.69108887 4.09179688 21.56225586 C4.67506364 38.34351365 5.08997319 55.11415558 5.0625 71.90625 C5.06189072 72.74643614 5.06128143 73.58662228 5.06065369 74.4522686 C5.03984458 99.80490384 4.78448268 125.15679489 4.55461836 150.50820011 C4.49269244 157.34567635 4.43291048 164.18317094 4.37324238 171.0206672 C4.25108523 185.0137985 4.1264435 199.0069068 4 213 C4.65661747 212.92912957 5.31323494 212.85825914 5.98974991 212.78524113 C15.3615951 211.88041129 24.66556647 211.86558149 34.06933594 211.88647461 C35.86418659 211.8867572 37.65903736 211.88659734 39.45388794 211.8860321 C44.2918763 211.88574695 49.12983952 211.89159796 53.96782207 211.89860606 C59.03667254 211.90488667 64.10552368 211.90544711 69.17437744 211.90663147 C78.75754407 211.90973096 88.3406992 211.91792562 97.92386079 211.92798096 C108.8404957 211.93918514 119.75713119 211.94466337 130.67377043 211.94967639 C153.11585331 211.96010947 175.55792601 211.977682 198 212 C198 210.35 198 208.7 198 207 C204.85618326 208.92556636 211.43252132 211.2472483 218 214 C218 214.66 218 215.32 218 216 C215.23113877 217.00577013 212.46015896 218.00480147 209.6875 219 C208.90181641 219.28617188 208.11613281 219.57234375 207.30664062 219.8671875 C206.54931641 220.13789063 205.79199219 220.40859375 205.01171875 220.6875 C203.96697388 221.06455078 203.96697388 221.06455078 202.90112305 221.44921875 C201 222 201 222 198 222 C198 220.35 198 218.7 198 217 C133.98 217 69.96 217 4 217 C4 226.24 4 235.48 4 245 C2.35 244.67 0.7 244.34 -1 244 C-1 235.42 -1 226.84 -1 218 C-8.26 217.67 -15.52 217.34 -23 217 C-22.67 215.35 -22.34 213.7 -22 212 C-19.06243881 211.9730499 -16.12512445 211.95318526 -13.1875 211.9375 C-12.35412109 211.92912109 -11.52074219 211.92074219 -10.66210938 211.91210938 C-9.45844727 211.90727539 -9.45844727 211.90727539 -8.23046875 211.90234375 C-7.49207764 211.89710693 -6.75368652 211.89187012 -5.99291992 211.88647461 C-4 212 -4 212 -1 213 C-1 148.98 -1 84.96 -1 19 C-2.65 19 -4.3 19 -6 19 C-4.12275039 12.62267685 -2.14328358 6.29304541 0 0 Z " fill="#050706" transform="translate(48,43)"/>
<path d="M0 0 C1.39456867 0.00574201 2.78910972 0.01875397 4.18359375 0.03515625 C6.63796875 0.05578125 9.09234375 0.07640625 11.62109375 0.09765625 C13.27109375 8.67765625 14.92109375 17.25765625 16.62109375 26.09765625 C16.95109375 26.09765625 17.28109375 26.09765625 17.62109375 26.09765625 C17.76732178 25.34556885 17.9135498 24.59348145 18.06420898 23.81860352 C18.72503031 20.43166488 19.39173065 17.04591024 20.05859375 13.66015625 C20.28869141 12.47615234 20.51878906 11.29214844 20.75585938 10.07226562 C21.0894043 8.38520508 21.0894043 8.38520508 21.4296875 6.6640625 C21.73604126 5.1008728 21.73604126 5.1008728 22.04858398 3.50610352 C22.62109375 1.09765625 22.62109375 1.09765625 23.62109375 0.09765625 C25.9742293 0.02493884 28.32943043 0.01394757 30.68359375 0.03515625 C31.97394531 0.04417969 33.26429688 0.05320312 34.59375 0.0625 C35.59277344 0.07410156 36.59179688 0.08570312 37.62109375 0.09765625 C38.59506661 3.35868491 38.74226893 6.29587496 38.73461914 9.69238281 C38.73454361 10.8132428 38.73446808 11.93410278 38.73439026 13.08892822 C38.72922897 14.29321472 38.72406769 15.49750122 38.71875 16.73828125 C38.71733505 17.97559998 38.7159201 19.2129187 38.71446228 20.48773193 C38.70981485 23.76910566 38.70083722 27.05042998 38.6897583 30.33178711 C38.67950895 33.68342636 38.67504234 37.03506773 38.66992188 40.38671875 C38.658894 46.95705056 38.64215671 53.52734936 38.62109375 60.09765625 C35.32109375 60.09765625 32.02109375 60.09765625 28.62109375 60.09765625 C27.96109375 52.17765625 27.30109375 44.25765625 26.62109375 36.09765625 C25.34534852 43.62120972 25.34534852 43.62120972 24.07836914 51.14624023 C23.83848267 52.54338257 23.83848267 52.54338257 23.59375 53.96875 C23.43140869 54.9270874 23.26906738 55.8854248 23.10180664 56.87280273 C22.62109375 59.09765625 22.62109375 59.09765625 21.62109375 60.09765625 C18.65109375 60.09765625 15.68109375 60.09765625 12.62109375 60.09765625 C10.14609375 47.72265625 10.14609375 47.72265625 7.62109375 35.09765625 C6.96109375 43.34765625 6.30109375 51.59765625 5.62109375 60.09765625 C2.32109375 60.09765625 -0.97890625 60.09765625 -4.37890625 60.09765625 C-5.42074069 56.97215293 -5.47288683 54.90564548 -5.41650391 51.63232422 C-5.39963531 50.51461639 -5.38276672 49.39690857 -5.36538696 48.24533081 C-5.34148895 47.03902008 -5.31759094 45.83270935 -5.29296875 44.58984375 C-5.26110977 42.73530075 -5.26110977 42.73530075 -5.22860718 40.84329224 C-5.17046564 37.55893015 -5.10722011 34.27471178 -5.04229736 30.99047852 C-5.00388845 28.9717207 -4.96945415 26.95293621 -4.93652344 24.93408203 C-4.87312627 21.06922039 -4.80295337 17.20454454 -4.73046875 13.33984375 C-4.7106192 12.12948456 -4.69076965 10.91912537 -4.6703186 9.67208862 C-4.64714569 8.56068512 -4.62397278 7.44928162 -4.60009766 6.30419922 C-4.58153717 5.32063446 -4.56297668 4.3370697 -4.54385376 3.32369995 C-4.2749031 -0.30591486 -3.77457515 0.10909177 0 0 Z " fill="#133459" transform="translate(626.37890625,76.90234375)"/>
<path d="M0 0 C4.95 0 9.9 0 15 0 C17.09594819 8.98263512 19.08603141 17.97700522 21 27 C22.98 18.09 24.96 9.18 27 0 C31.95 0 36.9 0 42 0 C42.33 19.47 42.66 38.94 43 59 C39.37 59 35.74 59 32 59 C31.67 51.08 31.34 43.16 31 35 C29.35 42.92 27.7 50.84 26 59 C22.7 59 19.4 59 16 59 C14.35 50.42 12.7 41.84 11 33 C10.67 41.58 10.34 50.16 10 59 C6.37 59 2.74 59 -1 59 C-1.11474577 39.30079872 -1.00738011 19.67988995 0 0 Z " fill="#133459" transform="translate(510,178)"/>
<path d="M0 0 C6.33443796 4.66457523 10.68316249 13.12470567 12.04296875 20.8203125 C13.00612936 32.33087129 11.35908204 41.28496024 3.85546875 50.2578125 C-2.80206568 57.08883317 -9.36999947 59.44027848 -18.83984375 59.91015625 C-28.49246941 59.63194774 -36.18531743 56.7862968 -42.95703125 49.8203125 C-49.31762062 41.74485835 -51.56827631 32.40427893 -50.74609375 22.203125 C-49.16374536 12.61946779 -44.79889469 5.6425464 -37.328125 -0.515625 C-26.13069035 -8.37412115 -11.27192031 -6.79465057 0 0 Z M-32.64453125 13.6328125 C-36.78658698 19.34213256 -37.8696006 24.89619253 -36.95703125 31.8203125 C-35.14059183 38.16752977 -32.4363791 42.16741393 -26.95703125 45.8203125 C-22.62699558 47.69666129 -17.26192592 47.55103092 -12.80078125 46.13671875 C-7.99138255 43.97428389 -5.4839177 41.57085902 -2.95703125 36.8203125 C-0.8272243 30.43089165 -0.76098861 22.42022217 -3.64453125 16.2578125 C-5.95094697 12.36727495 -8.91352436 9.84206595 -12.95703125 7.8203125 C-14.89062711 7.67179406 -16.83045222 7.59900417 -18.76953125 7.5703125 C-19.80722656 7.54453125 -20.84492188 7.51875 -21.9140625 7.4921875 C-26.81502638 8.02066114 -29.29894645 10.13161911 -32.64453125 13.6328125 Z " fill="#010101" transform="translate(229.95703125,118.1796875)"/>
<path d="M0 0 C4.29 0 8.58 0 13 0 C13.13277344 1.34835938 13.26554687 2.69671875 13.40234375 4.0859375 C13.58052349 5.84897913 13.75892014 7.61199885 13.9375 9.375 C14.02451172 10.26445312 14.11152344 11.15390625 14.20117188 12.0703125 C14.28818359 12.92109375 14.37519531 13.771875 14.46484375 14.6484375 C14.543396 15.43395996 14.62194824 16.21948242 14.70288086 17.02880859 C14.90696298 19.07134803 14.90696298 19.07134803 16 21 C16.99 14.07 17.98 7.14 19 0 C22.3 0 25.6 0 29 0 C29.20496094 1.34835938 29.40992188 2.69671875 29.62109375 4.0859375 C29.89305328 5.84898547 30.16519831 7.61200484 30.4375 9.375 C30.57220703 10.26445312 30.70691406 11.15390625 30.84570312 12.0703125 C31.04389648 13.34648437 31.04389648 13.34648437 31.24609375 14.6484375 C31.36654053 15.43395996 31.4869873 16.21948242 31.61108398 17.02880859 C31.92238238 19.06611684 31.92238238 19.06611684 33 21 C33.13277344 19.73542969 33.26554687 18.47085938 33.40234375 17.16796875 C33.58055463 15.50779375 33.75894963 13.84763852 33.9375 12.1875 C34.02451172 11.35412109 34.11152344 10.52074219 34.20117188 9.66210938 C34.28818359 8.85966797 34.37519531 8.05722656 34.46484375 7.23046875 C34.543396 6.49207764 34.62194824 5.75368652 34.70288086 4.99291992 C35 3 35 3 36 0 C39.96 0 43.92 0 48 0 C47.30686453 10.46004438 46.13024634 20.82201917 44.84326172 31.22314453 C44.49727791 34.02202065 44.15653461 36.82150063 43.81640625 39.62109375 C43.59666019 41.41410003 43.37661888 43.20707016 43.15625 45 C43.05517944 45.83023682 42.95410889 46.66047363 42.84997559 47.51586914 C42.75317505 48.29438232 42.65637451 49.07289551 42.55664062 49.875 C42.47305298 50.55304688 42.38946533 51.23109375 42.30334473 51.9296875 C41.95591915 54.30084956 41.4699883 56.6500585 41 59 C36.71 59 32.42 59 28 59 C26.68 50.42 25.36 41.84 24 33 C23.05442315 40.43378497 23.05442315 40.43378497 22.11547852 47.8684082 C21.99615967 48.79484131 21.87684082 49.72127441 21.75390625 50.67578125 C21.63345947 51.62364502 21.5130127 52.57150879 21.38891602 53.5480957 C21 56 21 56 20 59 C15.71 59 11.42 59 7 59 C6.08603077 51.60282198 5.17308177 44.20551979 4.26194 36.80799294 C3.83884249 33.37321781 3.41529396 29.93849954 2.99072266 26.50390625 C2.50289741 22.55745571 2.01701951 18.61076663 1.53125 14.6640625 C1.37813354 13.42757965 1.22501709 12.1910968 1.06726074 10.91714478 C0.85704285 9.20559708 0.85704285 9.20559708 0.64257812 7.45947266 C0.51822388 6.451315 0.39386963 5.44315735 0.26574707 4.40444946 C0 2 0 2 0 0 Z " fill="#143459" transform="translate(345,178)"/>
<path d="M0 0 C26.5576324 0 26.5576324 0 31.4375 4.4375 C35.03601753 8.03601753 35.21280827 10.83434296 35.375 15.75 C35.36025921 21.82320513 34.03936867 24.55669446 30 29 C30.598125 29.226875 31.19625 29.45375 31.8125 29.6875 C34.66515456 31.39909274 35.52319144 33.02974278 37 36 C37.87809553 42.39632329 37.79477955 48.57888636 34 54 C30.77087393 58.0085703 29.34166527 58.21944491 24 60 C16.08 60 8.16 60 0 60 C0 40.2 0 20.4 0 0 Z M14 10 C14 14.29 14 18.58 14 23 C16.12939828 24.35026777 16.12939828 24.35026777 19.125 23.0625 C20.07375 22.711875 21.0225 22.36125 22 22 C22.91285034 17.32057391 22.91285034 17.32057391 22.5 12.625 C20.10708526 10.0326757 17.38559073 10.2507845 14 10 Z M15 33 C13.46733418 36.06533164 13.89723529 39.26754272 13.9375 42.625 C13.94201172 43.33140625 13.94652344 44.0378125 13.95117188 44.765625 C13.96296125 46.51045275 13.98089676 48.255237 14 50 C19.01535052 49.67039784 19.01535052 49.67039784 23 47 C23.31949731 44.40083917 23.31949731 44.40083917 23.25 41.5 C23.25515625 40.5203125 23.2603125 39.540625 23.265625 38.53125 C23.25075045 35.83111848 23.25075045 35.83111848 21 34 C19.01178687 33.60235737 17.01055661 33.26224651 15 33 Z " fill="#13345A" transform="translate(393,77)"/>
<path d="M0 0 C0.91330078 -0.020625 1.82660156 -0.04125 2.76757812 -0.0625 C9.2042939 -0.09894284 15.11780739 0.64530091 21.0625 3.25 C25.56643653 7.75393653 26.23395278 10.81145074 26.3125 17.0625 C26.33828125 18.28582031 26.3640625 19.50914063 26.390625 20.76953125 C25.89946748 25.97930921 23.69610879 28.70856638 20.0625 32.25 C20.38057617 33.36242065 20.38057617 33.36242065 20.70507812 34.49731445 C21.66161381 37.85123341 22.6121245 41.20683054 23.5625 44.5625 C23.89636719 45.72974609 24.23023438 46.89699219 24.57421875 48.09960938 C24.89003906 49.21787109 25.20585937 50.33613281 25.53125 51.48828125 C25.82451172 52.51993408 26.11777344 53.55158691 26.41992188 54.61450195 C27.0625 57.25 27.0625 57.25 27.0625 60.25 C22.4425 60.25 17.8225 60.25 13.0625 60.25 C10.75013058 53.77536563 9.02005349 47.27230474 7.50878906 40.57226562 C7.08671536 38.78294709 6.58112799 37.0137551 6.0625 35.25 C5.4025 34.92 4.7425 34.59 4.0625 34.25 C4.0625 42.83 4.0625 51.41 4.0625 60.25 C-0.5575 60.25 -5.1775 60.25 -9.9375 60.25 C-10.69953268 56.4398366 -11.06369555 53.54168378 -11.06689453 49.74121094 C-11.07004669 48.66369568 -11.07319885 47.58618042 -11.07644653 46.47601318 C-11.0744223 45.32377258 -11.07239807 44.17153198 -11.0703125 42.984375 C-11.07126923 41.79523499 -11.07222595 40.60609497 -11.07321167 39.38092041 C-11.07389125 36.8727615 -11.07205243 34.36460082 -11.06787109 31.85644531 C-11.06250085 28.00061137 -11.0678333 24.14489291 -11.07421875 20.2890625 C-11.0735583 17.85416641 -11.07227783 15.41927039 -11.0703125 12.984375 C-11.07334885 11.24386871 -11.07334885 11.24386871 -11.07644653 9.46820068 C-11.07329437 8.40329407 -11.07014221 7.33838745 -11.06689453 6.24121094 C-11.06609894 5.29920837 -11.06530334 4.35720581 -11.06448364 3.38665771 C-10.75555439 -1.81146123 -3.99969801 0.02175227 0 0 Z M4.0625 10.25 C4.0625 15.2 4.0625 20.15 4.0625 25.25 C9.70106256 25.8901844 9.70106256 25.8901844 11.9375 23.6875 C13.49891373 20.30443692 13.52298843 17.93390741 13.0625 14.25 C11.51964369 11.70668762 11.51964369 11.70668762 9.0625 10.25 C7.4125 10.25 5.7625 10.25 4.0625 10.25 Z " fill="#133357" transform="translate(445.9375,76.75)"/>
<path d="M0 0 C4.62 0 9.24 0 14 0 C14 7.92 14 15.84 14 24 C16.64 24 19.28 24 22 24 C22 16.08 22 8.16 22 0 C26.62 0 31.24 0 36 0 C36 19.8 36 39.6 36 60 C31.38 60 26.76 60 22 60 C21.505 47.625 21.505 47.625 21 35 C18.69 35 16.38 35 14 35 C14 43.25 14 51.5 14 60 C9.38 60 4.76 60 0 60 C0 40.2 0 20.4 0 0 Z " fill="#13355B" transform="translate(741,77)"/>
<path d="M0 0 C4.31891435 3.46328037 5.79394506 7.74771253 6.4753418 13.13110352 C6.87296487 17.95999691 6.84088311 22.79844412 6.84375 27.640625 C6.85599609 28.71763672 6.86824219 29.79464844 6.88085938 30.90429688 C6.91172204 47.88904955 6.91172204 47.88904955 2.34375 53.828125 C-3.00823309 58.80671392 -8.20505783 58.70520635 -15.2421875 58.578125 C-20.36068438 58.16555094 -23.06709972 56.64023779 -26.59375 53.015625 C-31.21015253 45.92614968 -30.68331886 38.35429116 -30.65942383 30.21582031 C-30.65626848 27.9663016 -30.67974089 25.71810613 -30.70507812 23.46875 C-30.77908925 7.14901399 -30.77908925 7.14901399 -25.96240234 1.79174805 C-19.01276688 -4.46554061 -7.95181838 -4.62769758 0 0 Z M-12.34375 7.328125 C-13.33375 7.988125 -14.32375 8.648125 -15.34375 9.328125 C-15.63542512 12.14197706 -15.73972908 14.73239445 -15.70703125 17.546875 C-15.70752975 18.36055542 -15.70802826 19.17423584 -15.70854187 20.01257324 C-15.70619974 21.73415568 -15.69646296 23.45574143 -15.67993164 25.17724609 C-15.65634319 27.81769313 -15.65936877 30.4571307 -15.66601562 33.09765625 C-15.66043889 34.76823521 -15.65332903 36.4388099 -15.64453125 38.109375 C-15.64544266 38.90210815 -15.64635406 39.69484131 -15.64729309 40.51159668 C-15.75803968 44.88741147 -15.75803968 44.88741147 -13.34375 48.328125 C-10.56137345 47.92283599 -10.56137345 47.92283599 -8.34375 46.328125 C-8.25516354 43.58918415 -8.22851521 40.8755923 -8.24609375 38.13671875 C-8.2475087 37.31688004 -8.24892365 36.49704132 -8.25038147 35.65235901 C-8.25599711 33.02341118 -8.26855221 30.39454727 -8.28125 27.765625 C-8.28626299 25.98763143 -8.29082624 24.20963654 -8.29492188 22.43164062 C-8.30597161 18.06376955 -8.32324669 13.69596152 -8.34375 9.328125 C-9.66375 8.668125 -10.98375 8.008125 -12.34375 7.328125 Z " fill="#13355A" transform="translate(496.34375,179.671875)"/>
<path d="M0 0 C6.53456582 6.53456582 6.28872871 14.15710378 6.32226562 22.8671875 C6.31900269 23.97852051 6.31900269 23.97852051 6.31567383 25.11230469 C6.31251848 27.3618234 6.33599089 29.61001887 6.36132812 31.859375 C6.43588355 48.2739936 6.43588355 48.2739936 1.58325195 53.53637695 C-3.68691046 58.20028784 -8.2506227 58.28803671 -14.984375 58.21484375 C-20.15210429 57.84667651 -23.34435779 56.43190678 -27.3125 53 C-31.57312404 45.42555726 -31.31871022 35.9857121 -31.25 27.5 C-31.25773438 26.54480469 -31.26546875 25.58960938 -31.2734375 24.60546875 C-31.25286629 17.00440581 -31.10673113 8.74529979 -27.3125 2 C-19.58552271 -4.68279117 -8.70936485 -5.15452205 0 0 Z M-13 7 C-14.64087728 8.00858385 -14.64087728 8.00858385 -16 10 C-16.28608245 12.69386487 -16.39675558 15.15160101 -16.36328125 17.84375 C-16.36377975 18.60925171 -16.36427826 19.37475342 -16.36479187 20.16345215 C-16.36245307 21.78070677 -16.35273587 23.39796514 -16.33618164 25.01513672 C-16.31258681 27.49089092 -16.31562205 29.96556817 -16.32226562 32.44140625 C-16.31668874 34.01302725 -16.30957879 35.58464372 -16.30078125 37.15625 C-16.30169266 37.89693726 -16.30260406 38.63762451 -16.30354309 39.40075684 C-16.25198479 43.13735806 -16.12552576 44.81171136 -14 48 C-11.525 47.505 -11.525 47.505 -9 47 C-9 34.46 -9 21.92 -9 9 C-10.32 8.34 -11.64 7.68 -13 7 Z " fill="#133459" transform="translate(640,180)"/>
<path d="M0 0 C1.28648437 -0.02835937 2.57296875 -0.05671875 3.8984375 -0.0859375 C8.17471723 0.44299437 10.26493127 1.74776525 13.625 4.375 C14.49125 5.0246875 14.49125 5.0246875 15.375 5.6875 C19.99743888 11.92779249 18.96317389 20.75964554 18.94067383 28.13549805 C18.93751278 30.30373397 18.96102376 32.4706039 18.98632812 34.63867188 C19.02578589 43.18195317 18.86773844 50.23150088 13.375 57.25 C8.25695846 61.20485028 2.95694205 61.82728158 -3.375 61.375 C-8.91829411 60.3236856 -11.75884748 58.71438302 -15.375 54.375 C-19.76659737 47.56802408 -18.55850447 38.24332938 -18.5625 30.5 C-18.58086914 28.63794922 -18.58086914 28.63794922 -18.59960938 26.73828125 C-18.62619185 10.09765089 -18.62619185 10.09765089 -14 5 C-9.49135003 0.49135003 -6.37224626 0.06359527 0 0 Z M-1.375 10.375 C-3.92456487 12.92456487 -3.61226715 14.56289187 -3.62724304 18.0390625 C-3.62005753 18.80992188 -3.61287201 19.58078125 -3.60546875 20.375 C-3.60501053 21.16648437 -3.60455231 21.95796875 -3.6040802 22.7734375 C-3.60105731 24.4479319 -3.5931699 26.12242348 -3.58081055 27.796875 C-3.56257326 30.36468431 -3.56030072 32.93213274 -3.56054688 35.5 C-3.55563094 37.12500313 -3.54980229 38.7500038 -3.54296875 40.375 C-3.54185593 41.14585938 -3.5407431 41.91671875 -3.53959656 42.7109375 C-3.58603433 46.67238567 -3.58603433 46.67238567 -2.375 50.375 C-0.70888095 50.417721 0.95882885 50.41563832 2.625 50.375 C4.04226236 49.18589749 4.04226236 49.18589749 3.73852539 45.77319336 C3.73836625 44.17040144 3.73267063 42.5676044 3.72265625 40.96484375 C3.72053383 39.70179161 3.72053383 39.70179161 3.71836853 38.41322327 C3.71275263 35.71294665 3.70019748 33.01275172 3.6875 30.3125 C3.68248705 28.48632932 3.67792379 26.66015734 3.67382812 24.83398438 C3.66277804 20.34762458 3.64550279 15.86132616 3.625 11.375 C1.22780568 10.69541397 1.22780568 10.69541397 -1.375 10.375 Z " fill="#143459" transform="translate(495.375,76.625)"/>
<path d="M0 0 C3.61328125 0.03255208 7.2265625 0.06510417 10.83984375 0.09765625 C11.16984375 5.70765625 11.49984375 11.31765625 11.83984375 17.09765625 C14.14984375 11.48765625 16.45984375 5.87765625 18.83984375 0.09765625 C23.45984375 0.09765625 28.07984375 0.09765625 32.83984375 0.09765625 C31.99876645 4.30304275 31.45339124 6.06555427 29.38671875 9.52734375 C24.48362273 18.72590548 21.62042858 26.26719136 24.6953125 36.47265625 C26.92523058 43.31474998 29.72687987 49.94925325 32.68725586 56.50341797 C33.83984375 59.09765625 33.83984375 59.09765625 33.83984375 60.09765625 C28.88984375 60.09765625 23.93984375 60.09765625 18.83984375 60.09765625 C16.52984375 53.16765625 14.21984375 46.23765625 11.83984375 39.09765625 C11.50984375 46.02765625 11.17984375 52.95765625 10.83984375 60.09765625 C0 60.1953125 0 60.1953125 -3.16015625 60.09765625 C-4.89083324 58.36697926 -4.28772154 56.03276821 -4.28955078 53.67578125 C-4.29270294 52.51788086 -4.2958551 51.35998047 -4.29910278 50.16699219 C-4.29707855 48.90661133 -4.29505432 47.64623047 -4.29296875 46.34765625 C-4.29440384 44.42228027 -4.29440384 44.42228027 -4.29586792 42.45800781 C-4.29734456 39.73761801 -4.29519144 37.017261 -4.29052734 34.296875 C-4.28483006 30.80280956 -4.28810924 27.30882092 -4.29409981 23.8147583 C-4.29857379 20.49238472 -4.2954451 17.17003202 -4.29296875 13.84765625 C-4.29499298 12.58727539 -4.29701721 11.32689453 -4.29910278 10.02832031 C-4.29595062 8.87041992 -4.29279846 7.71251953 -4.28955078 6.51953125 C-4.28835739 4.98184082 -4.28835739 4.98184082 -4.28713989 3.41308594 C-4.0898104 -0.18503548 -3.69387828 0.11414951 0 0 Z " fill="#14355A" transform="translate(566.16015625,76.90234375)"/>
<path d="M0 0 C4.26472038 2.05754053 6.01173921 5.29391591 7.77124023 9.44116211 C9.37023024 15.23578037 9.14275247 21.22004512 9.06030273 27.18774414 C9.03126337 29.48331789 9.0397395 31.77658538 9.05273438 34.07226562 C9.0288889 50.79589505 9.0288889 50.79589505 3.34375 56.796875 C-3.25553792 60.69645422 -9.53494617 61.0331335 -16.96875 59.859375 C-21.39356742 58.00899681 -23.77867824 55.38086735 -26.40625 51.421875 C-27.67727613 47.6087966 -27.58817734 44.00213028 -27.609375 40.02734375 C-27.61507507 39.20236893 -27.62077515 38.3773941 -27.62664795 37.52742004 C-27.63609123 35.78155802 -27.64262926 34.03567823 -27.64648438 32.28979492 C-27.65617586 29.62972582 -27.68719912 26.97043422 -27.71875 24.31054688 C-27.72528189 22.61198374 -27.73053163 20.9134151 -27.734375 19.21484375 C-27.7467218 18.42401901 -27.7590686 17.63319427 -27.77178955 16.81840515 C-27.75231013 11.94609856 -27.07935412 8.65243243 -24.40625 4.421875 C-17.54224269 -1.77247306 -8.86198968 -2.12917934 0 0 Z M-11.40625 9.421875 C-13.88559653 13.14089479 -13.67826514 16.00001653 -13.63671875 20.30078125 C-13.63626053 21.06865463 -13.63580231 21.83652802 -13.6353302 22.62767029 C-13.63231176 24.24911039 -13.62443761 25.87054769 -13.61206055 27.49194336 C-13.59379348 29.97845691 -13.591551 32.46459819 -13.59179688 34.95117188 C-13.58688187 36.5260449 -13.58105363 38.10091539 -13.57421875 39.67578125 C-13.57310593 40.42162979 -13.5719931 41.16747833 -13.57084656 41.93592834 C-13.60523403 45.80656682 -13.60523403 45.80656682 -12.40625 49.421875 C-10.74013095 49.464596 -9.07242115 49.46251332 -7.40625 49.421875 C-5.98898764 48.23277249 -5.98898764 48.23277249 -6.29272461 44.82006836 C-6.29288375 43.21727644 -6.29857937 41.6144794 -6.30859375 40.01171875 C-6.31071617 38.74866661 -6.31071617 38.74866661 -6.31288147 37.46009827 C-6.31849737 34.75982165 -6.33105252 32.05962672 -6.34375 29.359375 C-6.34876295 27.53320432 -6.35332621 25.70703234 -6.35742188 23.88085938 C-6.36847196 19.39449958 -6.38574721 14.90820116 -6.40625 10.421875 C-8.05625 10.091875 -9.70625 9.761875 -11.40625 9.421875 Z " fill="#14355B" transform="translate(547.40625,77.578125)"/>
<path d="M0 0 C3.3 0 6.6 0 10 0 C10.91751482 1.97877362 11.83396224 3.95804217 12.75 5.9375 C13.26046875 7.03964844 13.7709375 8.14179687 14.296875 9.27734375 C16.23036763 13.50353291 18.11247968 17.75307928 20 22 C20.33 14.74 20.66 7.48 21 0 C24.96 0 28.92 0 33 0 C33 19.8 33 39.6 33 60 C29.7 60 26.4 60 23 60 C19.29164277 52.12565848 16.06576302 44.14617031 13 36 C12.67 43.92 12.34 51.84 12 60 C8.04 60 4.08 60 0 60 C0 40.2 0 20.4 0 0 Z " fill="#14355A" transform="translate(353,77)"/>
<path d="M0 0 C3.3 0 6.6 0 10 0 C13.71137771 7.2106767 16.94268842 14.48774868 20 22 C20.33 14.74 20.66 7.48 21 0 C24.96 0 28.92 0 33 0 C33 19.47 33 38.94 33 59 C29.7 59 26.4 59 23 59 C19.05102513 51.55770121 16.078483 43.83613855 13 36 C12.67 43.59 12.34 51.18 12 59 C8.04 59 4.08 59 0 59 C0 39.53 0 20.06 0 0 Z " fill="#13345A" transform="translate(726,178)"/>
<path d="M0 0 C1.39456452 0.00667256 2.78911118 0.01863093 4.18359375 0.03515625 C4.89451172 0.03966797 5.60542969 0.04417969 6.33789062 0.04882812 C8.09899388 0.06064761 9.86005411 0.07858362 11.62109375 0.09765625 C13.6750586 5.60891597 14.71055762 11.2111414 15.78515625 16.97265625 C15.98209076 18.01534668 16.17902527 19.05803711 16.38192749 20.13232422 C16.79580115 22.33065656 17.20750995 24.52939744 17.6171875 26.72851562 C18.24416508 30.0873241 18.8814222 33.44407199 19.51953125 36.80078125 C19.92119689 38.94128926 20.32225891 41.08191064 20.72265625 43.22265625 C20.91324615 44.22280762 21.10383606 45.22295898 21.30020142 46.25341797 C21.4739328 47.19459473 21.64766418 48.13577148 21.82666016 49.10546875 C21.98051178 49.9267627 22.1343634 50.74805664 22.2928772 51.59423828 C22.62109375 54.09765625 22.62109375 54.09765625 22.62109375 60.09765625 C18.33109375 60.09765625 14.04109375 60.09765625 9.62109375 60.09765625 C9.29109375 56.13765625 8.96109375 52.17765625 8.62109375 48.09765625 C5.98109375 48.09765625 3.34109375 48.09765625 0.62109375 48.09765625 C-0.03890625 52.05765625 -0.69890625 56.01765625 -1.37890625 60.09765625 C-5.66890625 60.09765625 -9.95890625 60.09765625 -14.37890625 60.09765625 C-13.78335487 52.46851841 -12.77877018 45.07240048 -11.34765625 37.55859375 C-11.15167847 36.51111969 -10.95570068 35.46364563 -10.75378418 34.38442993 C-10.34273396 32.19413293 -9.92917254 30.0043058 -9.51318359 27.81494141 C-8.87426571 24.4482032 -8.24520027 21.07972509 -7.6171875 17.7109375 C-7.21542213 15.57671396 -6.81309889 13.44259534 -6.41015625 11.30859375 C-6.22159058 10.29832123 -6.0330249 9.28804871 -5.83874512 8.24716187 C-5.66186157 7.32174591 -5.48497803 6.39632996 -5.30273438 5.44287109 C-5.14808716 4.62555511 -4.99343994 3.80823914 -4.83410645 2.96615601 C-4.0345575 -0.31582197 -3.60216416 0.10410879 0 0 Z M3.62109375 22.09765625 C2.96109375 27.70765625 2.30109375 33.31765625 1.62109375 39.09765625 C3.27109375 39.09765625 4.92109375 39.09765625 6.62109375 39.09765625 C5.96109375 33.48765625 5.30109375 27.87765625 4.62109375 22.09765625 C4.29109375 22.09765625 3.96109375 22.09765625 3.62109375 22.09765625 Z " fill="#143459" transform="translate(684.37890625,76.90234375)"/>
<path d="M0 0 C5.61 0 11.22 0 17 0 C18.43118281 7.43682174 19.85514232 14.87497665 21.27246094 22.31445312 C21.75550828 24.84445411 22.24051835 27.37408119 22.72753906 29.90332031 C23.42770949 33.54134871 24.12078281 37.18066863 24.8125 40.8203125 C25.03123779 41.94865509 25.24997559 43.07699768 25.4753418 44.23953247 C25.67554932 45.30017914 25.87575684 46.36082581 26.08203125 47.45361328 C26.34850464 48.84593674 26.34850464 48.84593674 26.62036133 50.26638794 C27 53 27 53 27 59 C22.71 59 18.42 59 14 59 C13.01 53.555 13.01 53.555 12 48 C8.535 47.505 8.535 47.505 5 47 C4.34 50.96 3.68 54.92 3 59 C-1.29 59 -5.58 59 -10 59 C-9.40630395 51.3530855 -8.38650465 43.95297485 -6.93359375 36.42578125 C-6.73524429 35.37593552 -6.53689484 34.32608978 -6.33253479 33.24443054 C-5.70572417 29.93284104 -5.0717428 26.62267322 -4.4375 23.3125 C-4.00798613 21.0502208 -3.57894527 18.78785174 -3.15039062 16.52539062 C-2.10572088 11.01587408 -1.0546235 5.50761949 0 0 Z M8 22 C7.34 27.28 6.68 32.56 6 38 C7.65 38 9.3 38 11 38 C10.34 32.72 9.68 27.44 9 22 C8.67 22 8.34 22 8 22 Z " fill="#13345A" transform="translate(317,178)"/>
<path d="M0 0 C26 0 26 0 32 3 C36.65232253 8.02953787 37.06556468 13.40606622 37 20 C36.6345102 24.6036162 35.53652038 27.42604796 32.3125 30.875 C26.33725108 34.70817856 22.14703207 35 15 35 C15 42.92 15 50.84 15 59 C10.05 59 5.1 59 0 59 C0 39.53 0 20.06 0 0 Z M15 10 C15 14.62 15 19.24 15 24 C17.31 24 19.62 24 22 24 C23.23887548 21.52224905 23.16741669 19.76346293 23.1875 17 C23.20167969 16.113125 23.21585938 15.22625 23.23046875 14.3125 C23.22713126 11.80480016 23.22713126 11.80480016 21 10 C19.02 10 17.04 10 15 10 Z " fill="#12355A" transform="translate(652,178)"/>
<path d="M0 0 C0.99 0 1.98 0 3 0 C3.68569622 1.73533369 4.37137625 3.47067378 5.05699158 5.20603943 C5.67173557 6.76201942 6.28653414 8.31797785 6.90138245 9.87391663 C8.60333582 14.18176111 10.30337486 18.49034697 12 22.80029297 C14.98452512 30.37943341 17.9714307 37.95637269 21.03515625 45.50390625 C21.45998291 46.55956787 21.88480957 47.61522949 22.32250977 48.70288086 C23.08876909 50.60446865 23.86356625 52.50264568 24.64819336 54.39672852 C24.98085205 55.22744873 25.31351074 56.05816895 25.65625 56.9140625 C25.94306641 57.6148291 26.22988281 58.3155957 26.52539062 59.03759766 C27 61 27 61 26 65 C22.04 65 18.08 65 14 65 C10.80786597 58.10527808 8.19926445 51.12654473 5.75 43.9375 C5.38648438 42.88111328 5.02296875 41.82472656 4.6484375 40.73632812 C3.76203389 38.15875972 2.87930443 35.57999696 2 33 C-1.11962036 39.70598029 -3.71797954 46.53159706 -6.1875 53.5 C-6.88677837 55.46965523 -7.5884668 57.43845708 -8.29296875 59.40625 C-8.74965942 60.69499023 -8.74965942 60.69499023 -9.21557617 62.00976562 C-10 64 -10 64 -11 65 C-13.01964199 65.07244053 -15.04167124 65.08377188 -17.0625 65.0625 C-18.16722656 65.05347656 -19.27195313 65.04445313 -20.41015625 65.03515625 C-21.26480469 65.02355469 -22.11945313 65.01195312 -23 65 C-24.22233032 61.51416212 -23.7858277 59.63753338 -22.44873047 56.23828125 C-22.08439911 55.29629883 -21.72006775 54.35431641 -21.34469604 53.38378906 C-20.93961823 52.37026367 -20.53454041 51.35673828 -20.1171875 50.3125 C-19.70590607 49.25901367 -19.29462463 48.20552734 -18.87088013 47.12011719 C-17.54924033 43.7425898 -16.21220464 40.37139113 -14.875 37 C-13.99641086 34.75950058 -13.11879553 32.51861903 -12.2421875 30.27734375 C-8.26628067 20.13929049 -4.21789051 10.04015582 0 0 Z " fill="#B70707" transform="translate(169,163)"/>
<path d="M0 0 C3.91954728 2.73456787 6.22231016 5.48259513 7.15234375 10.265625 C7.40555401 12.47167599 7.58892658 14.65709799 7.6875 16.875 C3.27835217 17.97728696 -0.79632401 17.95154536 -5.3125 17.875 C-5.6425 15.565 -5.9725 13.255 -6.3125 10.875 C-7.3025 10.875 -8.2925 10.875 -9.3125 10.875 C-9.85706859 13.71885821 -10.05607847 15.12677416 -9.3125 17.875 C-6.63694794 21.23087406 -3.51766773 24.03135792 -0.3125 26.875 C5.13138841 31.83498722 8.81543316 36.90635395 9.1875 44.4375 C8.94262245 49.01907988 7.70860805 52.4043223 4.6875 55.875 C-0.33197792 59.87009467 -4.3616903 60.46169534 -10.7265625 60.19140625 C-14.21577413 59.76447854 -16.46841296 58.9560393 -19.3125 56.875 C-23.84231169 50.99848753 -24.42960417 47.01835412 -24.3125 39.875 C-18.3725 39.38 -18.3725 39.38 -12.3125 38.875 C-11.3225 41.845 -10.3325 44.815 -9.3125 47.875 C-8.3225 47.875 -7.3325 47.875 -6.3125 47.875 C-5.98227965 43.14184169 -6.37914017 40.63336728 -9.3125 36.875 C-11.24812866 35.10174196 -13.23716397 33.40521938 -15.2421875 31.7109375 C-19.8212983 27.6502166 -23.9452906 23.70962933 -24.55078125 17.38671875 C-24.66915422 12.88231559 -24.63425059 9.6123451 -22.8125 5.4375 C-16.34975614 -1.18681246 -8.76908262 -2.978179 0 0 Z " fill="#133459" transform="translate(453.3125,178.125)"/>
<path d="M0 0 C8.91 0 17.82 0 27 0 C27 3.3 27 6.6 27 10 C22.71 10 18.42 10 14 10 C14 14.29 14 18.58 14 23 C17.3 23 20.6 23 24 23 C24 26.3 24 29.6 24 33 C20.7 33 17.4 33 14 33 C14 38.28 14 43.56 14 49 C18.29 49 22.58 49 27 49 C27 52.3 27 55.6 27 59 C18.09 59 9.18 59 0 59 C0 39.53 0 20.06 0 0 Z " fill="#13355C" transform="translate(560,178)"/>
<path d="M0 0 C8.91 0 17.82 0 27 0 C27 3.3 27 6.6 27 10 C22.71 10 18.42 10 14 10 C14 14.29 14 18.58 14 23 C17.3 23 20.6 23 24 23 C24 26.3 24 29.6 24 33 C20.7 33 17.4 33 14 33 C14 38.28 14 43.56 14 49 C18.29 49 22.58 49 27 49 C27 52.3 27 55.6 27 59 C18.09 59 9.18 59 0 59 C0 39.53 0 20.06 0 0 Z " fill="#133459" transform="translate(694,178)"/>
<path d="M0 0 C8.91 0 17.82 0 27 0 C27 3.3 27 6.6 27 10 C22.71 10 18.42 10 14 10 C14 14.29 14 18.58 14 23 C17.3 23 20.6 23 24 23 C24 26.3 24 29.6 24 33 C20.7 33 17.4 33 14 33 C14 38.28 14 43.56 14 49 C18.29 49 22.58 49 27 49 C27 52.3 27 55.6 27 59 C18.09 59 9.18 59 0 59 C0 39.53 0 20.06 0 0 Z " fill="#13355B" transform="translate(398,178)"/>
<path d="M0 0 C4.29 0 8.58 0 13 0 C17 11.625 17 11.625 17 15 C17.66 15 18.32 15 19 15 C19.103125 13.824375 19.20625 12.64875 19.3125 11.4375 C19.82914958 7.17514097 21.1508361 3.85912466 23 0 C26.96 0 30.92 0 35 0 C34.44346656 4.64494172 33.53775373 8.78062892 31.96875 13.18359375 C26.56160065 28.98734089 23.61067726 43.13453874 24 60 C19.71 60 15.42 60 11 60 C11.04382813 58.55496094 11.08765625 57.10992187 11.1328125 55.62109375 C11.24881712 37.94580771 6.93999109 23.27412151 0.90209961 6.90307617 C0 4 0 4 0 0 Z " fill="#13355A" transform="translate(314,77)"/>
<path d="M0 0 C10.56 0 21.12 0 32 0 C32 3.63 32 7.26 32 11 C29.03 11 26.06 11 23 11 C23 27.17 23 43.34 23 60 C18.38 60 13.76 60 9 60 C9 43.83 9 27.66 9 11 C6.03 11 3.06 11 0 11 C0 7.37 0 3.74 0 0 Z " fill="#12345B" transform="translate(705,77)"/>
<path d="M0 0 C4.62 0 9.24 0 14 0 C14 16.5 14 33 14 50 C18.29 50 22.58 50 27 50 C27 53.3 27 56.6 27 60 C18.09 60 9.18 60 0 60 C0 40.2 0 20.4 0 0 Z " fill="#12355B" transform="translate(291,77)"/>
<path d="M0 0 C1.093125 0.00257813 2.18625 0.00515625 3.3125 0.0078125 C4.405625 0.00523437 5.49875 0.00265625 6.625 0 C9.3125 0.1328125 9.3125 0.1328125 10.3125 1.1328125 C10.40118299 4.08986571 10.42770296 7.02346306 10.41015625 9.98046875 C10.4087413 10.8668956 10.40732635 11.75332245 10.40586853 12.66661072 C10.40025215 15.50954504 10.38769691 18.35240181 10.375 21.1953125 C10.36998711 23.11783741 10.36542384 25.04036354 10.36132812 26.96289062 C10.35027741 31.68622799 10.33300183 36.40950708 10.3125 41.1328125 C5.6925 41.1328125 1.0725 41.1328125 -3.6875 41.1328125 C-3.71214705 35.45451172 -3.73033462 29.77624181 -3.74243164 24.09790039 C-3.74747256 22.16462665 -3.75430519 20.23135674 -3.76293945 18.2980957 C-3.77501565 15.52554378 -3.78073057 12.75304209 -3.78515625 9.98046875 C-3.79031754 9.11067886 -3.79547882 8.24088898 -3.80079651 7.34474182 C-3.80099185 5.27375436 -3.74958168 3.20286926 -3.6875 1.1328125 C-2.6875 0.1328125 -2.6875 0.1328125 0 0 Z " fill="#11345B" transform="translate(73.6875,139.8671875)"/>
<path d="M0 0 C12.21 0 24.42 0 37 0 C37 4.29 37 8.58 37 13 C31.89136104 13.0246501 26.78275641 13.04283607 21.67407227 13.05493164 C19.93480832 13.05997204 18.19554864 13.0668043 16.45629883 13.07543945 C13.96174063 13.08751792 11.46723827 13.09323108 8.97265625 13.09765625 C8.19036148 13.10281754 7.40806671 13.10797882 6.60206604 13.11329651 C4.73432886 13.11349226 2.86670796 13.06199694 1 13 C0.67 12.67 0.34 12.34 0 12 C0 8.04 0 4.08 0 0 Z " fill="#12355A" transform="translate(70,192)"/>
<path d="M0 0 C8.91 0 17.82 0 27 0 C27 3.3 27 6.6 27 10 C22.71 10 18.42 10 14 10 C13.67 9.34 13.34 8.68 13 8 C17.29 8 21.58 8 26 8 C26 6.02 26 4.04 26 2 C18.08 2 10.16 2 2 2 C2.33 20.15 2.66 38.3 3 57 C5.475 56.505 5.475 56.505 8 56 C10.03637695 56.07006836 10.03637695 56.07006836 11.98828125 56.33984375 C12.69404297 56.43330078 13.39980469 56.52675781 14.12695312 56.62304688 C14.84818359 56.72681641 15.56941406 56.83058594 16.3125 56.9375 C17.05306641 57.03740234 17.79363281 57.13730469 18.55664062 57.24023438 C20.37209637 57.48619935 22.18620071 57.74210374 24 58 C24.66 55.69 25.32 53.38 26 51 C24.72125 50.979375 23.4425 50.95875 22.125 50.9375 C21.40570313 50.92589844 20.68640625 50.91429687 19.9453125 50.90234375 C17.91814596 50.87350758 17.91814596 50.87350758 16 52 C13.375 50.5625 13.375 50.5625 11 49 C11.185625 48.46375 11.37125 47.9275 11.5625 47.375 C12.11256128 44.38895306 11.50664413 41.97653426 11 39 C11.33 38.01 11.66 37.02 12 36 C12.66 36 13.32 36 14 36 C14 40.29 14 44.58 14 49 C18.29 49 22.58 49 27 49 C27 52.3 27 55.6 27 59 C18.09 59 9.18 59 0 59 C0 39.53 0 20.06 0 0 Z " fill="#132E4F" transform="translate(398,178)"/>
<path d="M0 0 C8.91 0 17.82 0 27 0 C27 3.3 27 6.6 27 10 C24.69 10 22.38 10 20 10 C20 9.34 20 8.68 20 8 C21.65 7.67 23.3 7.34 25 7 C25 5.68 25 4.36 25 3 C17.08 2.67 9.16 2.34 1 2 C1.33 3.32 1.66 4.64 2 6 C2.08508333 7.71021712 2.11776382 9.42341518 2.11352539 11.13574219 C2.11344986 12.15649841 2.11337433 13.17725464 2.11329651 14.22894287 C2.10813522 15.32386047 2.10297394 16.41877808 2.09765625 17.546875 C2.0962413 18.6732135 2.09482635 19.799552 2.09336853 20.96002197 C2.08777199 24.55670835 2.0752201 28.15333244 2.0625 31.75 C2.05748455 34.18880118 2.05292172 36.62760334 2.04882812 39.06640625 C2.0378037 45.04429208 2.02106898 51.02214159 2 57 C2.61868958 56.9285376 3.23737915 56.8570752 3.87481689 56.78344727 C4.6860199 56.69119873 5.4972229 56.5989502 6.33300781 56.50390625 C7.13732239 56.41181885 7.94163696 56.31973145 8.77032471 56.22485352 C11.11465447 55.98843757 13.39536738 55.92918398 15.75 56 C18.97253803 56.04514939 21.85862884 55.81067643 25 55 C25 54.34 25 53.68 25 53 C24.14535156 52.95101562 23.29070313 52.90203125 22.41015625 52.8515625 C21.30542969 52.77679688 20.20070313 52.70203125 19.0625 52.625 C17.40927734 52.52058594 17.40927734 52.52058594 15.72265625 52.4140625 C14.82417969 52.27742188 13.92570313 52.14078125 13 52 C12.67 51.34 12.34 50.68 12 50 C14.88415883 48.55792059 17.41721528 48.90605113 20.625 48.9375 C21.81351563 48.94652344 23.00203125 48.95554688 24.2265625 48.96484375 C25.14179687 48.97644531 26.05703125 48.98804688 27 49 C27 52.3 27 55.6 27 59 C18.09 59 9.18 59 0 59 C0 39.53 0 20.06 0 0 Z " fill="#123050" transform="translate(560,178)"/>
<path d="M0 0 C4.62 0 9.24 0 14 0 C14 15.51 14 31.02 14 47 C13.67 47 13.34 47 13 47 C13 31.82 13 16.64 13 1 C9.37 1.33 5.74 1.66 2 2 C2.185625 3.0725 2.37125 4.145 2.5625 5.25 C2.9575986 8.63655946 2.77760709 9.89147662 2 13 C2.15339844 14.19496094 2.30679687 15.38992187 2.46484375 16.62109375 C3.4567712 24.38933459 2.83769917 32.25891771 2.5625 40.0625 C2.50917927 41.70766339 2.45643986 43.35284573 2.40429688 44.99804688 C2.27731365 48.99902612 2.13839449 52.99933471 2 57 C9.59 57.33 17.18 57.66 25 58 C25 56.02 25 54.04 25 52 C24.2575 52.2784375 24.2575 52.2784375 23.5 52.5625 C19.84918311 53.20139296 16.66035276 52.54905291 13 52 C13 51.34 13 50.68 13 50 C17.62 50 22.24 50 27 50 C27 53.3 27 56.6 27 60 C18.09 60 9.18 60 0 60 C0 40.2 0 20.4 0 0 Z " fill="#172D4A" transform="translate(291,77)"/>
<path d="M0 0 C4.62 0 9.24 0 14 0 C14 19.8 14 39.6 14 60 C9.38 60 4.76 60 0 60 C0 51.75 0 43.5 0 35 C0.33 35 0.66 35 1 35 C1 42.59 1 50.18 1 58 C4.63 58 8.26 58 12 58 C12 39.52 12 21.04 12 2 C9.03 2 6.06 2 3 2 C3.02320313 3.48113281 3.04640625 4.96226563 3.0703125 6.48828125 C3.08907 8.42968247 3.10727022 10.37108913 3.125 12.3125 C3.15013672 13.77719727 3.15013672 13.77719727 3.17578125 15.27148438 C3.18222656 16.20927734 3.18867187 17.14707031 3.1953125 18.11328125 C3.20578613 18.97735596 3.21625977 19.84143066 3.22705078 20.73168945 C3 23 3 23 1 26 C-2.625 26.1875 -2.625 26.1875 -6 26 C-6 25.34 -6 24.68 -6 24 C-4.02 24 -2.04 24 0 24 C0 16.08 0 8.16 0 0 Z " fill="#182F4C" transform="translate(763,77)"/>
<path d="M0 0 C1.30453125 -0.02578125 2.6090625 -0.0515625 3.953125 -0.078125 C7.93091119 0.2656343 10.33935866 1.23750977 13.75 3.25 C10.73968256 4.18423645 9.88349732 4.29449911 6.75 3.25 C6.75 2.59 6.75 1.93 6.75 1.25 C-1.18991454 0.83000563 -1.18991454 0.83000563 -8.12109375 3.83984375 C-9.26432253 5.58139787 -10.26623882 7.41364581 -11.25 9.25 C-12.24 9.58 -13.23 9.91 -14.25 10.25 C-14.27478935 14.85815035 -14.2929023 19.46626153 -14.30493164 24.07446289 C-14.30994856 25.64087602 -14.31676362 27.2072845 -14.32543945 28.77368164 C-14.33762094 31.03012239 -14.34325481 33.28650102 -14.34765625 35.54296875 C-14.35281754 36.23899704 -14.35797882 36.93502533 -14.36329651 37.65214539 C-14.36371722 41.33011215 -14.03077889 44.66412918 -13.25 48.25 C-13.25 49.57 -13.25 50.89 -13.25 52.25 C-12.59 52.58 -11.93 52.91 -11.25 53.25 C-10.88261719 53.90484375 -10.51523437 54.5596875 -10.13671875 55.234375 C-7.30216932 58.2625893 -3.99502946 58.17028574 -0.0625 58.5 C0.68708984 58.57734375 1.43667969 58.6546875 2.20898438 58.734375 C4.05441097 58.92244395 5.9020687 59.08838576 7.75 59.25 C7.75 58.59 7.75 57.93 7.75 57.25 C10.06 56.59 12.37 55.93 14.75 55.25 C11.50483582 59.14419701 8.68131773 60.24702012 3.75 61.25 C-1.33316231 61.61308302 -5.52985479 61.22387891 -10.25 59.25 C-13.50364156 56.28150905 -15.85211778 53.44364665 -17.25 49.25 C-17.37111791 46.44355119 -17.43815378 43.66273229 -17.453125 40.85546875 C-17.45882507 40.03049393 -17.46452515 39.2055191 -17.47039795 38.35554504 C-17.47984123 36.60968302 -17.48637926 34.86380323 -17.49023438 33.11791992 C-17.49992586 30.45785082 -17.53094912 27.79855922 -17.5625 25.13867188 C-17.56903189 23.44010874 -17.57428163 21.7415401 -17.578125 20.04296875 C-17.5904718 19.25214401 -17.6028186 18.46131927 -17.61553955 17.64653015 C-17.59606013 12.77422356 -16.92310412 9.48055743 -14.25 5.25 C-9.32024705 0.80119855 -6.61013013 0.07776624 0 0 Z " fill="#16304F" transform="translate(537.25,76.75)"/>
<path d="M0 0 C3.3 0 6.6 0 10 0 C13 5.75 13 5.75 13 8 C12.34 8 11.68 8 11 8 C11 7.34 11 6.68 11 6 C10.34 6 9.68 6 9 6 C8.67 4.35 8.34 2.7 8 1 C6.02 1 4.04 1 2 1 C2 19.15 2 37.3 2 56 C2.66 56.33 3.32 56.66 4 57 C4.66 57.33 5.32 57.66 6 58 C7.32 58 8.64 58 10 58 C10.33 54.7 10.66 51.4 11 48 C11.33 48 11.66 48 12 48 C12 51.96 12 55.92 12 60 C8.04 60 4.08 60 0 60 C0 40.2 0 20.4 0 0 Z " fill="#162E4A" transform="translate(353,77)"/>
<path d="M0 0 C3.01888424 0.52830474 3.73974117 0.94973535 5.5 3.4375 C5.7578125 6.5625 5.7578125 6.5625 5.625 10.4375 C5.50021784 15.1632806 5.48109493 19.82446792 5.81640625 24.54296875 C5.87618652 25.38923828 5.9359668 26.23550781 5.99755859 27.10742188 C6.12200212 28.75685849 6.25860543 30.40543309 6.40869141 32.05273438 C6.67391277 35.74236252 6.68273296 37.99437258 5.25 41.46875 C3.5 43.4375 3.5 43.4375 -0.1875 43.75 C-1.280625 43.646875 -2.37375 43.54375 -3.5 43.4375 C-6.02335149 38.30431285 -6.85517797 34.72059461 -6.6796875 28.89453125 C-6.66036163 28.20364914 -6.64103577 27.51276703 -6.62112427 26.8009491 C-6.57654867 25.35279517 -6.52402846 23.9048656 -6.46386719 22.45727539 C-6.37482727 20.24570983 -6.31855906 18.03495834 -6.265625 15.82226562 C-6.21809311 14.40878734 -6.16867946 12.99537081 -6.1171875 11.58203125 C-6.07190918 10.30690674 -6.02663086 9.03178223 -5.97998047 7.71801758 C-5.35996518 3.48040543 -4.4413322 0.77723314 0 0 Z M-1.5 2.4375 C-3.97934653 6.15651979 -3.77201514 9.01564153 -3.73046875 13.31640625 C-3.73001053 14.08427963 -3.72955231 14.85215302 -3.7290802 15.64329529 C-3.72606176 17.26473539 -3.71818761 18.88617269 -3.70581055 20.50756836 C-3.68754348 22.99408191 -3.685301 25.48022319 -3.68554688 27.96679688 C-3.68063187 29.5416699 -3.67480363 31.11654039 -3.66796875 32.69140625 C-3.66685593 33.43725479 -3.6657431 34.18310333 -3.66459656 34.95155334 C-3.69898403 38.82219182 -3.69898403 38.82219182 -2.5 42.4375 C-0.83388095 42.480221 0.83382885 42.47813832 2.5 42.4375 C3.91726236 41.24839749 3.91726236 41.24839749 3.61352539 37.83569336 C3.61336625 36.23290144 3.60767063 34.6301044 3.59765625 33.02734375 C3.59553383 31.76429161 3.59553383 31.76429161 3.59336853 30.47572327 C3.58775263 27.77544665 3.57519748 25.07525172 3.5625 22.375 C3.55748705 20.54882932 3.55292379 18.72265734 3.54882812 16.89648438 C3.53777804 12.41012458 3.52050279 7.92382616 3.5 3.4375 C1.85 3.1075 0.2 2.7775 -1.5 2.4375 Z " fill="#17334B" transform="translate(537.5,84.5625)"/>
<path d="M0 0 C1.90265625 -0.01546875 1.90265625 -0.01546875 3.84375 -0.03125 C8.94594665 0.71009481 12.09819008 2.81782809 15.375 6.75 C15.74625 7.3275 16.1175 7.905 16.5 8.5 C12.89825993 7.16221083 9.78100043 5.48586868 6.5 3.5 C5.51 3.17 4.52 2.84 3.5 2.5 C3.685625 3.056875 3.87125 3.61375 4.0625 4.1875 C4.57551165 6.899133 4.1640724 8.84371039 3.5 11.5 C2.695625 11.479375 1.89125 11.45875 1.0625 11.4375 C-1.43354885 11.20366379 -1.43354885 11.20366379 -2.5 12.5 C-2.65988491 15.01880517 -2.75934225 17.51342266 -2.81640625 20.03515625 C-2.83718735 20.78840683 -2.85796844 21.54165741 -2.87937927 22.31773376 C-2.94495425 24.7325599 -3.00379621 27.14749798 -3.0625 29.5625 C-3.1056777 31.19597529 -3.14929173 32.8294391 -3.19335938 34.46289062 C-3.30064362 38.47514464 -3.40188821 42.48751164 -3.5 46.5 C-3.83 46.5 -4.16 46.5 -4.5 46.5 C-4.66791607 41.73133605 -4.82844326 36.96250162 -4.98217773 32.19335938 C-5.03549272 30.5715468 -5.09081357 28.94979885 -5.14819336 27.328125 C-5.23039833 24.9949334 -5.30534775 22.66160324 -5.37890625 20.328125 C-5.40594131 19.60506165 -5.43297638 18.88199829 -5.46083069 18.13702393 C-5.65374049 11.60564242 -5.65374049 11.60564242 -4.5 8.5 C-2.66391839 6.56728252 -0.62737753 5.12948066 1.5 3.5 C-3.1465893 2.39366921 -6.15093808 2.42431136 -10.5 4.5 C-11.8169667 6.38370471 -11.8169667 6.38370471 -12.5 8.5 C-13.49 9.985 -13.49 9.985 -14.5 11.5 C-15.49 11.17 -16.48 10.84 -17.5 10.5 C-13.19795125 3.2196098 -8.81238882 -0.07164544 0 0 Z " fill="#17304F" transform="translate(495.5,76.5)"/>
<path d="M0 0 C12.21 0 24.42 0 37 0 C37 4.29 37 8.58 37 13 C31.89136104 13.0246501 26.78275641 13.04283607 21.67407227 13.05493164 C19.93480832 13.05997204 18.19554864 13.0668043 16.45629883 13.07543945 C13.96174063 13.08751792 11.46723827 13.09323108 8.97265625 13.09765625 C8.19036148 13.10281754 7.40806671 13.10797882 6.60206604 13.11329651 C4.73432886 13.11349226 2.86670796 13.06199694 1 13 C0.67 12.67 0.34 12.34 0 12 C0 8.04 0 4.08 0 0 Z M1 1 C1 3.97 1 6.94 1 10 C4.465 9.505 4.465 9.505 8 9 C8 9.66 8 10.32 8 11 C12.12498538 11.02892385 16.24994485 11.04677267 20.375 11.0625 C21.550625 11.07087891 22.72625 11.07925781 23.9375 11.08789062 C25.05898437 11.09111328 26.18046875 11.09433594 27.3359375 11.09765625 C28.37282715 11.10289307 29.4097168 11.10812988 30.47802734 11.11352539 C32.9959668 11.17140815 32.9959668 11.17140815 35 10 C35 7.03 35 4.06 35 1 C23.78 1 12.56 1 1 1 Z " fill="#1B314E" transform="translate(70,192)"/>
<path d="M0 0 C5.61 0 11.22 0 17 0 C17 0.33 17 0.66 17 1 C15.95199219 1.09087891 15.95199219 1.09087891 14.8828125 1.18359375 C13.97273438 1.26738281 13.06265625 1.35117188 12.125 1.4375 C11.22007812 1.51871094 10.31515625 1.59992188 9.3828125 1.68359375 C6.98889139 1.86989285 6.98889139 1.86989285 5 3 C3.68 2.67 2.36 2.34 1 2 C1 20.48 1 38.96 1 58 C5.62 58 10.24 58 15 58 C17.67339479 58.27419434 20.34633304 58.57541329 23 59 C23 58.34 23 57.68 23 57 C23.886875 56.773125 24.77375 56.54625 25.6875 56.3125 C29.43380532 54.82811487 31.33729434 52.97596515 34 50 C34.99 50.495 34.99 50.495 36 51 C35.14195022 52.13798092 34.26254933 53.25987392 33.375 54.375 C32.88773437 55.00148437 32.40046875 55.62796875 31.8984375 56.2734375 C23.95124364 63.50113233 7.97604152 60 0 60 C0 40.2 0 20.4 0 0 Z " fill="#1B2F49" transform="translate(393,77)"/>
<path d="M0 0 C1.32 0 2.64 0 4 0 C4.99 2.31 5.98 4.62 7 7 C8.32 4.69 9.64 2.38 11 0 C11.99 0 12.98 0 14 0 C13.43497299 5.17165896 12.28715487 9.51351373 10.3125 14.375 C9.83425781 15.59960938 9.35601562 16.82421875 8.86328125 18.0859375 C7 21 7 21 3.79296875 21.9140625 C2.41044922 21.95660156 2.41044922 21.95660156 1 22 C1 20.68 1 19.36 1 18 C1.99 17.67 2.98 17.34 4 17 C3.00267443 12.13008048 1.89731633 7.60776823 0 3 C0 2.01 0 1.02 0 0 Z " fill="#050505" transform="translate(60,27)"/>
<path d="M0 0 C1.75 0.8125 1.75 0.8125 2.75 2.8125 C3.41 2.8125 4.07 2.8125 4.75 2.8125 C7.75 9.3125 7.75 9.3125 7.75 13.8125 C4.45 13.8125 1.15 13.8125 -2.25 13.8125 C-2.91 12.4925 -3.57 11.1725 -4.25 9.8125 C-4.91 9.4825 -5.57 9.1525 -6.25 8.8125 C-6.875 5.75 -6.875 5.75 -7.25 2.8125 C-2.85714286 -0.23809524 -2.85714286 -0.23809524 0 0 Z " fill="#B90505" transform="translate(186.25,213.1875)"/>
<path d="M0 0 C5.61 0 11.22 0 17 0 C17.33 3.3 17.66 6.6 18 10 C17.34 10 16.68 10 16 10 C15.34 7.69 14.68 5.38 14 3 C10.04 2.67 6.08 2.34 2 2 C1.87625 3.8975 1.7525 5.795 1.625 7.75 C1.36339383 11.76129453 0.86988382 14.47288581 -1 18 C-1.41405023 20.11872964 -1.41405023 20.11872964 -1.5625 22.3125 C-1.67271484 23.48425781 -1.67271484 23.48425781 -1.78515625 24.6796875 C-1.89150391 25.82824219 -1.89150391 25.82824219 -2 27 C-2.85106383 33.70212766 -2.85106383 33.70212766 -4 36 C-4.90614794 39.96439723 -5.44730752 43.97324047 -6 48 C-6.66 48 -7.32 48 -8 48 C-7.44780597 37.77359731 -5.38969817 27.8404417 -3.4375 17.8125 C-3.10432884 16.08017208 -2.77164268 14.3477508 -2.43945312 12.61523438 C-1.63277847 8.40885854 -0.81619625 4.20458277 0 0 Z " fill="#142E4B" transform="translate(317,178)"/>
<path d="M0 0 C3.5625 0.3125 3.5625 0.3125 5.4375 1.5625 C6.76595668 3.62898817 7.41713211 4.84124594 7.5625 7.3125 C6.5625 10 6.5625 10 4.5625 12.3125 C1.125 13.375 1.125 13.375 -2.4375 13.3125 C-4.9375 11.8125 -4.9375 11.8125 -6.4375 9.3125 C-6.24633791 3.76879938 -6.04183853 0.54925805 0 0 Z " fill="#020202" transform="translate(210.4375,138.6875)"/>
<path d="M0 0 C3.37462715 0.54723683 5.08235 1.0549 8 3 C8.6496875 2.2575 8.6496875 2.2575 9.3125 1.5 C11 0 11 0 14 0 C13.46633942 2.40147261 12.88928199 4.20034688 11.6875 6.375 C11.460625 7.24125 11.23375 8.1075 11 9 C12.80132223 12.20212693 12.80132223 12.20212693 15 15 C15 15.66 15 16.32 15 17 C11.31245243 16.50168276 9.39509338 15.89932357 7 13 C6.01 14.485 6.01 14.485 5 16 C2.375 16.1875 2.375 16.1875 0 16 C0.28875 15.443125 0.5775 14.88625 0.875 14.3125 C2.0413253 11.91505355 3.0339881 9.48403061 4 7 C3.01 5.824375 3.01 5.824375 2 4.625 C0 2 0 2 0 0 Z " fill="#090909" transform="translate(257,268)"/>
<path d="M0 0 C4.62 0 9.24 0 14 0 C14 7.26 14 14.52 14 22 C13.67 22 13.34 22 13 22 C12.93941406 20.80761719 12.87882813 19.61523438 12.81640625 18.38671875 C12.73198851 16.82030075 12.64734113 15.25389512 12.5625 13.6875 C12.50352539 12.50897461 12.50352539 12.50897461 12.44335938 11.30664062 C12.40146484 10.54931641 12.35957031 9.79199219 12.31640625 9.01171875 C12.27974854 8.31522217 12.24309082 7.61872559 12.20532227 6.90112305 C12.04418847 4.7783428 12.04418847 4.7783428 11 2 C8.03 1.67 5.06 1.34 2 1 C1.67 19.48 1.34 37.96 1 57 C9.87268146 58.78615635 9.87268146 58.78615635 13 57 C13.33 57.99 13.66 58.98 14 60 C9.38 60 4.76 60 0 60 C0 40.2 0 20.4 0 0 Z " fill="#172D46" transform="translate(741,77)"/>
<path d="M0 0 C1.97909398 -0.02686553 3.95828971 -0.04633375 5.9375 -0.0625 C7.03964844 -0.07410156 8.14179687 -0.08570313 9.27734375 -0.09765625 C12 0 12 0 13 1 C13.08868299 3.95705321 13.11520296 6.89065056 13.09765625 9.84765625 C13.0962413 10.7340831 13.09482635 11.62050995 13.09336853 12.53379822 C13.08775215 15.37673254 13.07519691 18.21958931 13.0625 21.0625 C13.05748711 22.98502491 13.05292384 24.90755104 13.04882812 26.83007812 C13.03777741 31.55341549 13.02050183 36.27669458 13 41 C8.38 41 3.76 41 -1 41 C-1 29.12 -1 17.24 -1 5 C-0.67 5 -0.34 5 0 5 C0.0093457 5.91813477 0.01869141 6.83626953 0.02832031 7.78222656 C0.07239931 11.19705278 0.13403732 14.61063108 0.20751953 18.02490234 C0.23570088 19.50102196 0.25692966 20.97729169 0.27099609 22.45361328 C0.29246698 24.57923057 0.33913043 26.70304879 0.390625 28.828125 C0.41157227 30.1059082 0.43251953 31.38369141 0.45410156 32.70019531 C1.07868257 36.47561433 2.04663675 37.66406461 5 40 C5.33 39.34 5.66 38.68 6 38 C8.49092811 36.75453595 9.41080733 37.2232422 12 38 C11.88188994 33.19432577 11.75765177 28.38886432 11.62768555 23.58349609 C11.58432462 21.94812347 11.54265039 20.31270523 11.50268555 18.67724609 C11.44501088 16.32896159 11.38130871 13.98090696 11.31640625 11.6328125 C11.29969376 10.89942657 11.28298126 10.16604065 11.26576233 9.41043091 C11.21362038 5.57797692 11.21362038 5.57797692 10 2 C7.64400765 1.53248212 7.64400765 1.53248212 4.9375 1.375 C4.01839844 1.30023438 3.09929687 1.22546875 2.15234375 1.1484375 C1.08693359 1.07496094 1.08693359 1.07496094 0 1 C0 0.67 0 0.34 0 0 Z " fill="#19304B" transform="translate(71,140)"/>
<path d="M0 0 C1.125 3.75 1.125 3.75 0 6 C-0.66 6 -1.32 6 -2 6 C-1.690625 7.7325 -1.690625 7.7325 -1.375 9.5 C-0.7542307 14.79331659 -1.47534916 19.84065613 -2.32568359 25.0625 C-3.0763151 30.00956575 -2.78509609 34.10950559 -2 39 C-1.34 39 -0.68 39 0 39 C0 39.66 0 40.32 0 41 C-0.66 41 -1.32 41 -2 41 C-1.40776866 42.62938774 -0.80076372 44.25341128 -0.1875 45.875 C0.14894531 46.77992188 0.48539063 47.68484375 0.83203125 48.6171875 C1.89649024 51.29425849 1.89649024 51.29425849 5 53 C5 53.66 5 54.32 5 55 C2.20439049 54.70047041 1.00393938 54.00347592 -1.125 52.125 C-5.63670245 44.60549591 -5.31919389 35.04544601 -5.25 26.5 C-5.25773438 25.54480469 -5.26546875 24.58960938 -5.2734375 23.60546875 C-5.22626225 6.17421537 -5.22626225 6.17421537 0 0 Z " fill="#15304C" transform="translate(614,181)"/>
<path d="M0 0 C0.33 0 0.66 0 1 0 C1.33 16.5 1.66 33 2 50 C3.98 50.33 5.96 50.66 8 51 C8 46.05 8 41.1 8 36 C8.66 36 9.32 36 10 36 C10 33.03 10 30.06 10 27 C10.33 27 10.66 27 11 27 C11.10641049 35.76113075 10.95570474 44.27919423 10 53 C6.7 53 3.4 53 0 53 C-0.9971257 50.00862289 -1.09229826 48.18249007 -1.02172852 45.06958008 C-1.00163223 44.06876907 -0.98153595 43.06795807 -0.96083069 42.03681946 C-0.93379562 40.95861435 -0.90676056 39.88040924 -0.87890625 38.76953125 C-0.85529526 37.66397385 -0.83168427 36.55841644 -0.80735779 35.4193573 C-0.73070304 31.88360817 -0.64668612 28.34807705 -0.5625 24.8125 C-0.50928115 22.41732842 -0.45654074 20.02214617 -0.40429688 17.62695312 C-0.27508539 11.7511668 -0.13982681 5.87554277 0 0 Z " fill="#162E4C" transform="translate(622,84)"/>
<path d="M0 0 C2.875 0.9375 2.875 0.9375 4.875 3.9375 C4.5 7.625 4.5 7.625 3.875 10.9375 C-1.36524641 13.08123717 -1.36524641 13.08123717 -4.4375 12.5 C-6.125 10.9375 -6.125 10.9375 -7.125 7.5625 C-7.125 3.9375 -7.125 3.9375 -5.5625 1.4375 C-3.125 -0.0625 -3.125 -0.0625 0 0 Z " fill="#A2171B" transform="translate(131.125,170.0625)"/>
<path d="M0 0 C0.75 3.25 0.75 3.25 1 7 C-0.5625 9.5 -0.5625 9.5 -3 11 C-6.125 10.9375 -6.125 10.9375 -9 10 C-11 7 -11 7 -10.875 3.4375 C-10 0 -10 0 -8.3125 -1.5625 C-5.10311092 -2.16968172 -2.97549576 -1.21724827 0 0 Z " fill="#030303" transform="translate(135,92)"/>
<path d="M0 0 C2.3125 1.3125 2.3125 1.3125 4.3125 3.3125 C4.75 5.6875 4.75 5.6875 4.3125 8.3125 C2.1875 10.75 2.1875 10.75 -0.6875 12.3125 C-5.76067073 11.23932927 -5.76067073 11.23932927 -7.6875 9.3125 C-8.0625 5.9375 -8.0625 5.9375 -7.6875 2.3125 C-4.92542247 -0.29174453 -3.71841348 -0.95122205 0 0 Z " fill="#18324F" transform="translate(91.6875,211.6875)"/>
<path d="M0 0 C1.9375 1.625 1.9375 1.625 3 4 C2.875 7.125 2.875 7.125 2 10 C-1 12 -1 12 -4.0625 11.75 C-7 11 -7 11 -9 9 C-9.3125 5.5 -9.3125 5.5 -9 2 C-5.52957297 -0.31361802 -4.08165827 -0.51020728 0 0 Z " fill="#040404" transform="translate(214,192)"/>
<path d="M0 0 C0.33 0 0.66 0 1 0 C1 15.51 1 31.02 1 47 C6.445 46.505 6.445 46.505 12 46 C12.33 33.13 12.66 20.26 13 7 C13.33 7 13.66 7 14 7 C14 20.53 14 34.06 14 48 C9.38 48 4.76 48 0 48 C0 32.16 0 16.32 0 0 Z " fill="#162F4C" transform="translate(714,89)"/>
<path d="M0 0 C3.5640275 0.19800153 4.94607935 0.95360316 7.6875 3.3125 C14.12429106 10.79309501 13.18192581 19.89769835 13.1875 29.3125 C13.19974609 30.38951172 13.21199219 31.46652344 13.22460938 32.57617188 C13.23681529 39.29349565 12.61435001 45.47583079 11 52 C9.9375 50.125 9.9375 50.125 9 48 C9.33 47.34 9.66 46.68 10 46 C11.07987957 36.44470195 11.18764827 27.5343464 9.47265625 18.05078125 C9 15 9 15 9.05078125 11.74609375 C9.28402592 8.86360422 9.28402592 8.86360422 7.125 6.75 C6.42375 6.1725 5.7225 5.595 5 5 C4.34 4.34 3.68 3.68 3 3 C1.68252676 2.30251417 0.35085807 1.63040043 -1 1 C-0.67 0.67 -0.34 0.34 0 0 Z " fill="#18304D" transform="translate(490,178)"/>
<path d="M0 0 C0.99 0 1.98 0 3 0 C3.144375 1.134375 3.28875 2.26875 3.4375 3.4375 C3.61171478 6.80777201 3.61171478 6.80777201 5 8 C5.15740605 9.70563778 5.25093392 11.41727244 5.31640625 13.12890625 C5.37924805 14.68061523 5.37924805 14.68061523 5.44335938 16.26367188 C5.50233398 17.8965918 5.50233398 17.8965918 5.5625 19.5625 C5.60568359 20.65498047 5.64886719 21.74746094 5.69335938 22.87304688 C5.79981958 25.58186768 5.90044807 28.29091651 6 31 C9.3 31 12.6 31 16 31 C16 31.99 16 32.98 16 34 C11.71 34 7.42 34 3 34 C2.95101563 32.29972656 2.90203125 30.59945312 2.8515625 28.84765625 C2.77648421 26.58592277 2.7009386 24.32420476 2.625 22.0625 C2.5940625 20.94552734 2.563125 19.82855469 2.53125 18.67773438 C2.303033 12.19256808 1.6388417 6.2822265 0 0 Z " fill="#192F4B" transform="translate(322,103)"/>
<path d="M0 0 C1.98 0.66 3.96 1.32 6 2 C6 2.33 6 2.66 6 3 C4.35 3 2.7 3 1 3 C1 7.29 1 11.58 1 16 C4.3 16 7.6 16 11 16 C11 19.3 11 22.6 11 26 C10.01 26 9.02 26 8 26 C8.33 23.36 8.66 20.72 9 18 C6.36 18.66 3.72 19.32 1 20 C0.67 19.01 0.34 18.02 0 17 C-0.99 16.67 -1.98 16.34 -3 16 C-2.7525 15.2575 -2.7525 15.2575 -2.5 14.5 C-2.03709038 12.1854519 -1.99694692 10.34243022 -2.0625 8 C-2.11604745 4.81095181 -1.81555139 2.72332709 0 0 Z " fill="#153050" transform="translate(573,185)"/>
<path d="M0 0 C0.8971875 0.5259375 0.8971875 0.5259375 1.8125 1.0625 C0.8225 1.5575 0.8225 1.5575 -0.1875 2.0625 C-0.4040625 2.92875 -0.4040625 2.92875 -0.625 3.8125 C-1.1875 6.0625 -1.1875 6.0625 -2.8125 8.5 C-4.51834102 11.67906736 -4.08186524 12.64765091 -3.1875 16.0625 C-3.14925377 18.39551986 -3.14175716 20.72961508 -3.1875 23.0625 C-4.6875 21.875 -4.6875 21.875 -6.1875 20.0625 C-6.1875 18.39583333 -6.1875 16.72916667 -6.1875 15.0625 C-6.6825 14.4025 -7.1775 13.7425 -7.6875 13.0625 C-9.55512594 10.57233207 -9.4407832 9.10189845 -9.1875 6.0625 C-7.8675 5.4025 -6.5475 4.7425 -5.1875 4.0625 C-5.1875 2.7425 -5.1875 1.4225 -5.1875 0.0625 C-2.1875 -0.9375 -2.1875 -0.9375 0 0 Z " fill="#BD0205" transform="translate(166.1875,189.9375)"/>
<path d="M0 0 C10.56 0 21.12 0 32 0 C32 3.63 32 7.26 32 11 C29.03 11 26.06 11 23 11 C23 10.34 23 9.68 23 9 C25.31 9 27.62 9 30 9 C29.979375 8.05125 29.95875 7.1025 29.9375 6.125 C30 3 30 3 31 1 C21.1 1 11.2 1 1 1 C1 3.97 1 6.94 1 10 C3.64 10 6.28 10 9 10 C9 10.33 9 10.66 9 11 C6.03 11 3.06 11 0 11 C0 7.37 0 3.74 0 0 Z " fill="#1A2F48" transform="translate(705,77)"/>
<path d="M0 0 C8.91 0 17.82 0 27 0 C26.67 2.97 26.34 5.94 26 9 C25.67 9 25.34 9 25 9 C24.67 7.02 24.34 5.04 24 3 C16.74 3 9.48 3 2 3 C2 4.98 2 6.96 2 9 C1.34 9 0.68 9 0 9 C0 6.03 0 3.06 0 0 Z " fill="#122E4E" transform="translate(694,178)"/>
<path d="M0 0 C0.99 0 1.98 0 3 0 C3 0.99 3 1.98 3 3 C2.34 3 1.68 3 1 3 C1 11.58 1 20.16 1 29 C-3.62 29 -8.24 29 -13 29 C-13.33 27.35 -13.66 25.7 -14 24 C-13.44828125 24.31710938 -12.8965625 24.63421875 -12.328125 24.9609375 C-9.71522011 26.12709975 -7.59420998 26.40045711 -4.75 26.625 C-3.85796875 26.69976562 -2.9659375 26.77453125 -2.046875 26.8515625 C-1.03367187 26.92503906 -1.03367187 26.92503906 0 27 C-0.03552979 26.2886792 -0.07105957 25.5773584 -0.10766602 24.84448242 C-0.26514574 21.62574412 -0.41392334 18.40666103 -0.5625 15.1875 C-0.61857422 14.06794922 -0.67464844 12.94839844 -0.73242188 11.79492188 C-0.80493164 10.18520508 -0.80493164 10.18520508 -0.87890625 8.54296875 C-0.9260376 7.55321045 -0.97316895 6.56345215 -1.02172852 5.54370117 C-1 3 -1 3 0 0 Z " fill="#193351" transform="translate(449,108)"/>
<path d="M0 0 C0.33 0 0.66 0 1 0 C1.33 15.84 1.66 31.68 2 48 C-1.63 48 -5.26 48 -9 48 C-9 47.34 -9 46.68 -9 46 C-6 45 -6 45 -1 46 C-0.67 30.82 -0.34 15.64 0 0 Z " fill="#173350" transform="translate(551,189)"/>
<path d="M0 0 C4.20820145 -0.08742801 8.41616776 -0.14053641 12.625 -0.1875 C14.40970703 -0.22520508 14.40970703 -0.22520508 16.23046875 -0.26367188 C27.28822256 -0.35633462 27.28822256 -0.35633462 32 3 C33.875 5.1875 33.875 5.1875 35 7 C34.67 7.66 34.34 8.32 34 9 C32.5 7.625 32.5 7.625 31 6 C31 5.34 31 4.68 31 4 C27.52334905 2.93111476 24.32862522 2.88524233 20.703125 2.90234375 C18.89521484 2.90717773 18.89521484 2.90717773 17.05078125 2.91210938 C15.16939453 2.92467773 15.16939453 2.92467773 13.25 2.9375 C11.98027344 2.94201172 10.71054687 2.94652344 9.40234375 2.95117188 C6.26818164 2.96295444 3.13411459 2.97940584 0 3 C0 2.01 0 1.02 0 0 Z " fill="#142C4D" transform="translate(652,178)"/>
<path d="M0 0 C6.42919767 0.9572361 10.41553475 2.30092312 15 7 C16.07465731 10.22397192 16.16691803 12.67470786 16.1875 16.0625 C16.20167969 17.12597656 16.21585937 18.18945312 16.23046875 19.28515625 C16 22 16 22 14 24 C13 22 13 22 13.5625 18.125 C14.03205543 14.75273825 14.10293479 12.83896197 12 10 C10.50014391 8.33289654 10.50014391 8.33289654 9 7 C8.67 6.67 8.34 6.34 8 6 C7.360625 5.855625 6.72125 5.71125 6.0625 5.5625 C4 5 4 5 2 3 C1.34 2.67 0.68 2.34 0 2 C0 1.34 0 0.68 0 0 Z " fill="#162F50" transform="translate(412,77)"/>
<path d="M0 0 C0.33 0 0.66 0 1 0 C1 7.92 1 15.84 1 24 C-9.83984375 24.09765625 -9.83984375 24.09765625 -13 24 C-14 23 -14 23 -14.09765625 19.83984375 C-14.08025391 17.90818359 -14.08025391 17.90818359 -14.0625 15.9375 C-14.05347656 14.64714844 -14.04445313 13.35679688 -14.03515625 12.02734375 C-14.02355469 11.02832031 -14.01195312 10.02929688 -14 9 C-13.67 9 -13.34 9 -13 9 C-12.34 12.96 -11.68 16.92 -11 21 C-7.40371521 22.4472136 -7.40371521 22.4472136 -1 21 C-0.67 14.07 -0.34 7.14 0 0 Z " fill="#1C2F48" transform="translate(576,113)"/>
<path d="M0 0 C0.66 0 1.32 0 2 0 C2 8.25 2 16.5 2 25 C-1.63 25 -5.26 25 -9 25 C-8.505 23.515 -8.505 23.515 -8 22 C-7.236875 22.020625 -6.47375 22.04125 -5.6875 22.0625 C-2.89814214 22.12942841 -2.89814214 22.12942841 0 21 C0 14.07 0 7.14 0 0 Z " fill="#0E2E51" transform="translate(736,212)"/>
<path d="M0 0 C5.02879248 4.4994459 6.81359512 7.95378352 7.22705078 14.71044922 C7.22673852 16.07523628 7.21570215 17.44005272 7.1953125 18.8046875 C7.1924826 19.5286673 7.18965271 20.25264709 7.18673706 20.99856567 C7.17562087 23.2908849 7.15053312 25.58280063 7.125 27.875 C7.1149591 29.43749432 7.10583519 30.99999482 7.09765625 32.5625 C7.07570973 36.37515338 7.04124013 40.18750848 7 44 C6.67 44 6.34 44 6 44 C6 34.1 6 24.2 6 14 C5.34 14 4.68 14 4 14 C4 12.35 4 10.7 4 9 C3.01 8.67 2.02 8.34 1 8 C1 7.01 1 6.02 1 5 C0.68911632 3.32900023 0.35919668 1.66128463 0 0 Z " fill="#16314F" transform="translate(639,180)"/>
<path d="M0 0 C-0.33 0.66 -0.66 1.32 -1 2 C-2.07701172 1.95166016 -2.07701172 1.95166016 -3.17578125 1.90234375 C-7.89235855 2.06543425 -11.97883286 3.54982648 -16 6 C-17.75461331 9.2660783 -17.75461331 9.2660783 -18 13 C-18.30163134 15.33764285 -18.62761282 17.67258011 -19 20 C-19.66 20.33 -20.32 20.66 -21 21 C-21.33321563 15.7981338 -21.61147189 11.40128975 -19.5 6.5625 C-13.74441785 0.6630283 -8.07574534 -0.67297878 0 0 Z " fill="#152D49" transform="translate(450,177)"/>
<path d="M0 0 C0.33 0.99 0.66 1.98 1 3 C0.67 3.66 0.34 4.32 0 5 C-0.22562581 7.40309095 -0.40040048 9.78687178 -0.53515625 12.1953125 C-0.57813339 12.90275604 -0.62111053 13.61019958 -0.66539001 14.33908081 C-0.80184777 16.60083106 -0.93224248 18.86288502 -1.0625 21.125 C-1.15389808 22.65757592 -1.24569003 24.1901284 -1.33789062 25.72265625 C-1.56316668 29.48151406 -1.7830054 33.24065539 -2 37 C-2.66 36.67 -3.32 36.34 -4 36 C-3.93104723 31.51540319 -3.84304555 27.03170291 -3.73754883 22.54785156 C-3.7043412 21.0232166 -3.67629622 19.49845994 -3.65356445 17.97363281 C-3.61994042 15.77877046 -3.56762458 13.58501912 -3.51171875 11.390625 C-3.48553467 10.07094727 -3.45935059 8.75126953 -3.43237305 7.39160156 C-2.98895137 3.91333279 -2.38428309 2.49808473 0 0 Z " fill="#0F2E4F" transform="translate(535,85)"/>
<path d="M0 0 C2.14553377 3.21830065 2.29583868 4.26786507 2.3125 8 C2.32925781 8.86625 2.34601562 9.7325 2.36328125 10.625 C1.93347739 13.43490048 1.26076207 14.32780615 -1 16 C-1.66 16 -2.32 16 -3 16 C-3.33 16.99 -3.66 17.98 -4 19 C-4.33 18.34 -4.66 17.68 -5 17 C-7.52733235 16.34444881 -7.52733235 16.34444881 -10 16 C-10 12.7 -10 9.4 -10 6 C-9.67 6 -9.34 6 -9 6 C-9 8.97 -9 11.94 -9 15 C-6.69 15 -4.38 15 -2 15 C-2 10.71 -2 6.42 -2 2 C-1.34 2 -0.68 2 0 2 C0 1.34 0 0.68 0 0 Z " fill="#16314D" transform="translate(676,187)"/>
<path d="M0 0 C4.62 0 9.24 0 14 0 C13.67 1.32 13.34 2.64 13 4 C12.34 4 11.68 4 11 4 C10.67 3.34 10.34 2.68 10 2 C7.21160696 1.49734308 7.21160696 1.49734308 4 2 C-0.34774777 6.05131042 -1.40968913 9.27488086 -3 15 C-5.125 17.4375 -5.125 17.4375 -7 19 C-4.9410545 12.54239821 -2.5629371 6.27477704 0 0 Z " fill="#172E4D" transform="translate(585,77)"/>
<path d="M0 0 C0.66 0 1.32 0 2 0 C3.65 4.95 5.3 9.9 7 15 C2.05 15 -2.9 15 -8 15 C-7.67 14.01 -7.34 13.02 -7 12 C-6.67 12.33 -6.34 12.66 -6 13 C-4.47480724 12.91062197 -2.95318071 12.75462854 -1.4375 12.5625 C-0.61121094 12.46066406 0.21507812 12.35882813 1.06640625 12.25390625 C1.70449219 12.17011719 2.34257813 12.08632812 3 12 C2.34 11.34 1.68 10.68 1 10 C1.66 10 2.32 10 3 10 C2.505 9.0925 2.01 8.185 1.5 7.25 C0 4 0 4 0 0 Z " fill="#122D4A" transform="translate(593,122)"/>
<path d="M0 0 C1.32 0.33 2.64 0.66 4 1 C4.66 3.31 5.32 5.62 6 8 C5.34 7.67 4.68 7.34 4 7 C3.01 8.485 3.01 8.485 2 10 C-0.97 9.505 -0.97 9.505 -4 9 C-3.35455571 5.51460083 -1.89865603 2.97180943 0 0 Z " fill="#BC0205" transform="translate(177,189)"/>
<path d="M0 0 C0.66 0 1.32 0 2 0 C1.78472656 0.84046875 1.56945312 1.6809375 1.34765625 2.546875 C0.92107687 6.78391064 1.88883845 9.30490012 3.4375 13.25 C6 19.86920981 6 19.86920981 6 22 C5.34 22 4.68 22 4 22 C1 17.61538462 1 17.61538462 1 15 C0.34 14.67 -0.32 14.34 -1 14 C-1.39460023 11.67624308 -1.72230092 9.3406065 -2 7 C-2.30903983 5.66082739 -2.62942911 4.32346746 -3 3 C-2.01 2.67 -1.02 2.34 0 2 C0 1.34 0 0.68 0 0 Z " fill="#172F4E" transform="translate(588,99)"/>
<path d="M0 0 C0.598125 0.763125 1.19625 1.52625 1.8125 2.3125 C5.26184464 6.55026627 8.55849738 10.48109059 14.25390625 11.33984375 C15.83755296 11.48473599 17.42389779 11.60334223 19.01171875 11.69140625 C21 12 21 12 23 14 C9.92579728 14.57120303 9.92579728 14.57120303 5 11 C1.52177888 7.52177888 0.45374289 4.87773605 0 0 Z " fill="#14304D" transform="translate(467,224)"/>
<path d="M0 0 C0.98484375 0.00902344 1.9696875 0.01804688 2.984375 0.02734375 C4.10585938 0.04474609 4.10585938 0.04474609 5.25 0.0625 C5.25 0.3925 5.25 0.7225 5.25 1.0625 C4.46753906 1.11148438 3.68507813 1.16046875 2.87890625 1.2109375 C1.86699219 1.28570312 0.85507812 1.36046875 -0.1875 1.4375 C-1.19683594 1.50710937 -2.20617187 1.57671875 -3.24609375 1.6484375 C-4.07238281 1.78507813 -4.89867187 1.92171875 -5.75 2.0625 C-6.08 2.7225 -6.41 3.3825 -6.75 4.0625 C-8.173125 4.990625 -8.173125 4.990625 -9.625 5.9375 C-13.54213413 8.60115121 -15.26215646 10.59896938 -16.75 15.0625 C-17.5 12.9375 -17.5 12.9375 -17.75 10.0625 C-15.40104228 5.71257829 -12.83097044 2.05768072 -7.984375 0.4921875 C-5.28126939 -0.0276405 -2.75105415 -0.03275064 0 0 Z " fill="#14304A" transform="translate(484.75,176.9375)"/>
<path d="M0 0 C4.95 0 9.9 0 15 0 C17.28571429 8.42857143 17.28571429 8.42857143 17 13 C16.34 13 15.68 13 15 13 C14.01 11.02 13.02 9.04 12 7 C12.66 7 13.32 7 14 7 C14 5.35 14 3.7 14 2 C9.71 2 5.42 2 1 2 C0.67 2.66 0.34 3.32 0 4 C0 2.68 0 1.36 0 0 Z " fill="#142D4B" transform="translate(510,178)"/>
<path d="M0 0 C0.33 0 0.66 0 1 0 C1.33 3.96 1.66 7.92 2 12 C-2.29 12 -6.58 12 -11 12 C-11.33 8.37 -11.66 4.74 -12 1 C-11.34 1 -10.68 1 -10 1 C-9.45627049 4.05847848 -9 6.88772805 -9 10 C-6.03 10 -3.06 10 0 10 C-0.185625 8.906875 -0.37125 7.81375 -0.5625 6.6875 C-1 3 -1 3 0 0 Z " fill="#132D48" transform="translate(705,125)"/>
<path d="M0 0 C0.33 0 0.66 0 1 0 C1.67272347 3.41550296 2.33711799 6.83257452 3 10.25 C3.19078125 11.21808594 3.3815625 12.18617187 3.578125 13.18359375 C3.75859375 14.11816406 3.9390625 15.05273438 4.125 16.015625 C4.29257812 16.87446289 4.46015625 17.73330078 4.6328125 18.61816406 C5 21 5 21 5 25 C4.34 25 3.68 25 3 25 C3 22.36 3 19.72 3 17 C1.68 16.34 0.36 15.68 -1 15 C-0.67 13.02 -0.34 11.04 0 9 C-0.66 8.67 -1.32 8.34 -2 8 C-1.34 5.36 -0.68 2.72 0 0 Z " fill="#15304F" transform="translate(700,99)"/>
<path d="M0 0 C0.66 0.33 1.32 0.66 2 1 C2.33 14.2 2.66 27.4 3 41 C1.35 41.99 -0.3 42.98 -2 44 C-2.33 43.34 -2.66 42.68 -3 42 C-2.01 41.34 -1.02 40.68 0 40 C0.29167512 37.18614794 0.39597908 34.59573055 0.36328125 31.78125 C0.36402901 30.56072937 0.36402901 30.56072937 0.36479187 29.31555176 C0.36244974 27.59396932 0.35271296 25.87238357 0.33618164 24.15087891 C0.31259319 21.51043187 0.31561877 18.8709943 0.32226562 16.23046875 C0.31668889 14.55988979 0.30957903 12.8893151 0.30078125 11.21875 C0.30169266 10.42601685 0.30260406 9.63328369 0.30354309 8.81652832 C0.41428968 4.44071353 0.41428968 4.44071353 -2 1 C-1.34 0.67 -0.68 0.34 0 0 Z " fill="#1A3051" transform="translate(487,186)"/>
<path d="M0 0 C0.33 0 0.66 0 1 0 C1.34087334 1.54001707 1.67230953 3.08212406 2 4.625 C2.185625 5.48351562 2.37125 6.34203125 2.5625 7.2265625 C3 10 3 10 3 16 C-1.29 16 -5.58 16 -10 16 C-10 14.68 -10 13.36 -10 12 C-9.34 12 -8.68 12 -8 12 C-8 12.66 -8 13.32 -8 14 C-7.4225 13.814375 -6.845 13.62875 -6.25 13.4375 C-3.79307475 12.95976454 -2.35602466 13.24270636 0 14 C0 13.34 0 12.68 0 12 C0.0309375 10.5459375 0.0309375 10.5459375 0.0625 9.0625 C0.15068772 5.95738804 0.15068772 5.95738804 -1 3 C-0.67 2.01 -0.34 1.02 0 0 Z " fill="#152D4F" transform="translate(341,221)"/>
<path d="M0 0 C0.99 1.32 1.98 2.64 3 4 C2.01 5.485 2.01 5.485 1 7 C1 7.99 1 8.98 1 10 C1.928125 9.690625 2.85625 9.38125 3.8125 9.0625 C5.875 8.375 7.9375 7.6875 10 7 C10.33 5.35 10.66 3.7 11 2 C11.66 2.66 12.32 3.32 13 4 C12.625 7.625 12.625 7.625 12 11 C7.71 11 3.42 11 -1 11 C-0.67 7.37 -0.34 3.74 0 0 Z " fill="#152F4F" transform="translate(308,226)"/>
<path d="M0 0 C4.29 0 8.58 0 13 0 C13.33 3.3 13.66 6.6 14 10 C13.01 9.67 12.02 9.34 11 9 C9.95550089 5.86650268 10.06576355 5.01031744 11 2 C8.36 2.33 5.72 2.66 3 3 C3 4.98 3 6.96 3 9 C2.01 9.495 2.01 9.495 1 10 C0.67 6.7 0.34 3.4 0 0 Z " fill="#142B4E" transform="translate(345,178)"/>
<path d="M0 0 C1.95115425 2.92673137 3.29645658 5.7129896 4.6875 8.9375 C5.14511719 9.97777344 5.60273438 11.01804688 6.07421875 12.08984375 C7.00643141 15.02021689 7.11435288 16.19723367 6 19 C4.04233719 19.08082094 2.08373272 19.13910778 0.125 19.1875 C-1.51082031 19.23970703 -1.51082031 19.23970703 -3.1796875 19.29296875 C-4.11039063 19.19628906 -5.04109375 19.09960938 -6 19 C-6.66 18.01 -7.32 17.02 -8 16 C-7.67 15.01 -7.34 14.02 -7 13 C-6.77570313 13.64453125 -6.55140625 14.2890625 -6.3203125 14.953125 C-5.17110544 17.24388852 -5.17110544 17.24388852 -2.6171875 17.609375 C-1.25980469 17.67898437 -1.25980469 17.67898437 0.125 17.75 C1.73375 17.8325 3.3425 17.915 5 18 C4.01 14.37 3.02 10.74 2 7 C1.34 7 0.68 7 0 7 C0 4.69 0 2.38 0 0 Z " fill="#9D201C" transform="translate(189,209)"/>
<path d="M0 0 C3 4 3 4 3 7 C3.74172877 9.15017528 3.74172877 9.15017528 5 11 C8.76624671 12.25541557 10.37188934 11.37061958 14 10 C14 11.32 14 12.64 14 14 C9.71 14 5.42 14 1 14 C0.67 9.38 0.34 4.76 0 0 Z " fill="#182E4D" transform="translate(372,223)"/>
<path d="M0 0 C1.15941038 3.47823115 0.70820884 5.45895578 0 9 C-0.66 9 -1.32 9 -2 9 C-2.50757862 10.41396902 -3.00574925 11.83131729 -3.5 13.25 C-3.7784375 14.03890625 -4.056875 14.8278125 -4.34375 15.640625 C-5.17864861 18.23412738 -5.17864861 18.23412738 -5 22 C-1.7 22.33 1.6 22.66 5 23 C5 23.33 5 23.66 5 24 C1.04 24 -2.92 24 -7 24 C-8.0650742 19.73970322 -7.94115619 19.05877485 -6.34765625 15.234375 C-5.98349609 14.34492188 -5.61933594 13.45546875 -5.24414062 12.5390625 C-4.85419922 11.61867187 -4.46425781 10.69828125 -4.0625 9.75 C-3.67642578 8.81414062 -3.29035156 7.87828125 -2.89257812 6.9140625 C-1.93833169 4.60502173 -0.97388338 2.30081138 0 0 Z " fill="#9F1816" transform="translate(153,204)"/>
<path d="M0 0 C0.99 0 1.98 0 3 0 C4.03028044 2.45475514 5.04945504 4.91314351 6.0625 7.375 C6.50432617 8.42300781 6.50432617 8.42300781 6.95507812 9.4921875 C7.69591098 11.30504908 8.35396964 13.15123143 9 15 C8.67 15.66 8.34 16.32 8 17 C7.5875 16.525625 7.175 16.05125 6.75 15.5625 C5.10921183 13.84723373 5.10921183 13.84723373 2.875 13.5 C2.25625 13.335 1.6375 13.17 1 13 C0.67 12.01 0.34 11.02 0 10 C1.32 9.67 2.64 9.34 4 9 C3.34 7.02 2.68 5.04 2 3 C1.01 3.33 0.02 3.66 -1 4 C-0.67 2.68 -0.34 1.36 0 0 Z " fill="#A21A15" transform="translate(169,163)"/>
<path d="M0 0 C5.94 0 11.88 0 18 0 C18 0.33 18 0.66 18 1 C16.02 1 14.04 1 12 1 C12 1.99 12 2.98 12 4 C11.22914062 3.98839844 10.45828125 3.97679687 9.6640625 3.96484375 C8.66117188 3.95582031 7.65828125 3.94679688 6.625 3.9375 C5.12839844 3.92009766 5.12839844 3.92009766 3.6015625 3.90234375 C1.01567547 3.81993398 1.01567547 3.81993398 -1 5 C-0.67 3.35 -0.34 1.7 0 0 Z " fill="#030403" transform="translate(26,255)"/>
<path d="M0 0 C0.33 0 0.66 0 1 0 C0.57045059 6.25107435 -0.01401507 12.04204521 -2 18 C-4.97 18 -7.94 18 -11 18 C-11 17.34 -11 16.68 -11 16 C-8.36 16 -5.72 16 -3 16 C-3.0928125 14.5459375 -3.0928125 14.5459375 -3.1875 13.0625 C-3.21625881 8.38440054 -1.64771207 4.32524418 0 0 Z " fill="#162D4A" transform="translate(650,119)"/>
<path d="M0 0 C4.95 0 9.9 0 15 0 C15 0.66 15 1.32 15 2 C13.20841511 2.02696365 11.41671527 2.04637917 9.625 2.0625 C8.62726562 2.07410156 7.62953125 2.08570313 6.6015625 2.09765625 C4 2 4 2 2 1 C1.86722656 1.68707031 1.73445312 2.37414062 1.59765625 3.08203125 C1.42105469 3.98308594 1.24445312 4.88414062 1.0625 5.8125 C0.88847656 6.70582031 0.71445312 7.59914062 0.53515625 8.51953125 C0 11 0 11 -1 14 C-1.66 14 -2.32 14 -3 14 C-2.01 9.38 -1.02 4.76 0 0 Z " fill="#172D4C" transform="translate(537,178)"/>
<path d="M0 0 C0.33 0 0.66 0 1 0 C1.28875 0.9075 1.5775 1.815 1.875 2.75 C2.83416729 5.87346622 2.83416729 5.87346622 4.1875 8 C5.3537273 10.87071335 4.67228985 13.04192467 4 16 C1.2160817 14.60804085 1.02101003 12.84424221 0 10 C-0.66 10 -1.32 10 -2 10 C-3.39195915 5.82412255 -1.82323219 3.86525224 0 0 Z " fill="#B70603" transform="translate(156,196)"/>
<path d="M0 0 C1.93166016 0.01740234 1.93166016 0.01740234 3.90234375 0.03515625 C5.19269531 0.04417969 6.48304688 0.05320312 7.8125 0.0625 C8.81152344 0.07410156 9.81054688 0.08570312 10.83984375 0.09765625 C10.50984375 1.08765625 10.17984375 2.07765625 9.83984375 3.09765625 C9.50984375 2.76765625 9.17984375 2.43765625 8.83984375 2.09765625 C7.38425005 1.99907022 5.92376456 1.96793482 4.46484375 1.97265625 C3.27761719 1.96878906 3.27761719 1.96878906 2.06640625 1.96484375 C-0.33359121 2.01147959 -0.33359121 2.01147959 -3.16015625 3.09765625 C-2.83015625 4.08765625 -2.50015625 5.07765625 -2.16015625 6.09765625 C-2.79936568 8.10660019 -3.47054663 10.10545068 -4.16015625 12.09765625 C-4.32515625 13.35578125 -4.49015625 14.61390625 -4.66015625 15.91015625 C-4.82515625 16.96203125 -4.99015625 18.01390625 -5.16015625 19.09765625 C-5.82015625 19.42765625 -6.48015625 19.75765625 -7.16015625 20.09765625 C-5.23086494 0.16164601 -5.23086494 0.16164601 0 0 Z " fill="#132846" transform="translate(653.16015625,76.90234375)"/>
<path d="M0 0 C3.96 0 7.92 0 12 0 C11.40380045 4.86896303 10.43023178 9.32790951 9 14 C8.34 13.67 7.68 13.34 7 13 C6.91952041 9.4588979 7.02688472 6.40590348 8 3 C8 2.34 8 1.68 8 1 C3.35413108 1.48484276 3.35413108 1.48484276 -1 3 C-0.67 2.01 -0.34 1.02 0 0 Z " fill="#172E49" transform="translate(337,77)"/>
<path d="M0 0 C0.99 0.33 1.98 0.66 3 1 C4.1875 4.5625 4.1875 4.5625 5 8 C9.95514502 7.12527407 9.95514502 7.12527407 13.4375 3.875 C13.623125 3.25625 13.80875 2.6375 14 2 C14 4.64 14 7.28 14 10 C10.7 10 7.4 10 4 10 C2.68 6.7 1.36 3.4 0 0 Z " fill="#182D47" transform="translate(372,127)"/>
<path d="M0 0 C4.62 0 9.24 0 14 0 C14 7.26 14 14.52 14 22 C13.67 22 13.34 22 13 22 C12.93941406 20.80761719 12.87882813 19.61523438 12.81640625 18.38671875 C12.73198851 16.82030075 12.64734113 15.25389512 12.5625 13.6875 C12.50352539 12.50897461 12.50352539 12.50897461 12.44335938 11.30664062 C12.40146484 10.54931641 12.35957031 9.79199219 12.31640625 9.01171875 C12.27974854 8.31522217 12.24309082 7.61872559 12.20532227 6.90112305 C12.04418847 4.7783428 12.04418847 4.7783428 11 2 C8.03 1.67 5.06 1.34 2 1 C1.34 2.32 0.68 3.64 0 5 C0 3.35 0 1.7 0 0 Z " fill="#1F314B" transform="translate(741,77)"/>
<path d="M0 0 C1.65 0 3.3 0 5 0 C5.13277344 0.56847656 5.26554688 1.13695312 5.40234375 1.72265625 C6.00471792 4.01797742 6.76142276 6.20454557 7.5625 8.4375 C8.68740238 11.74667885 9.34184959 14.4675542 9 18 C6.75848118 15.75848118 6.03698675 13.9932888 4.875 11.0625 C4.52179687 10.18722656 4.16859375 9.31195313 3.8046875 8.41015625 C3 6 3 6 3 3 C2.01 2.67 1.02 2.34 0 2 C0 1.34 0 0.68 0 0 Z " fill="#152E50" transform="translate(736,208)"/>
<path d="M0 0 C0.66 0 1.32 0 2 0 C2 0.66 2 1.32 2 2 C2.66 2 3.32 2 4 2 C5 7 6 12 7 17 C6.34 17.33 5.68 17.66 5 18 C4.16112944 15.56427941 3.32873471 13.12666783 2.5 10.6875 C2.14228516 9.65206055 2.14228516 9.65206055 1.77734375 8.59570312 C0.76791737 5.61068511 0 3.17341086 0 0 Z " fill="#172E4B" transform="translate(579,116)"/>
<path d="M0 0 C0.66 0 1.32 0 2 0 C0.47536437 7.49612516 -1.68006154 14.71359134 -4 22 C-4.33 22 -4.66 22 -5 22 C-4.87431641 20.95199219 -4.87431641 20.95199219 -4.74609375 19.8828125 C-4.64425781 18.97273438 -4.54242188 18.06265625 -4.4375 17.125 C-4.33308594 16.22007813 -4.22867187 15.31515625 -4.12109375 14.3828125 C-3.80325148 11.98346943 -3.80325148 11.98346943 -5 10 C-4.34 10 -3.68 10 -3 10 C-2.67 8.35 -2.34 6.7 -2 5 C-1.34 5 -0.68 5 0 5 C0 3.35 0 1.7 0 0 Z " fill="#172F4B" transform="translate(343,91)"/>
<path d="M0 0 C0.33 0 0.66 0 1 0 C1.07622858 3.96388638 0.9681648 7.1273408 0 11 C-3.3 11 -6.6 11 -10 11 C-10 9.68 -10 8.36 -10 7 C-9.34 7 -8.68 7 -8 7 C-8 7.66 -8 8.32 -8 9 C-7.0409375 8.7215625 -7.0409375 8.7215625 -6.0625 8.4375 C-5.381875 8.293125 -4.70125 8.14875 -4 8 C-3.67 8.33 -3.34 8.66 -3 9 C-2.01 6.03 -1.02 3.06 0 0 Z " fill="#172E4A" transform="translate(536,226)"/>
<path d="M0 0 C3.3 0 6.6 0 10 0 C10.66 3.96 11.32 7.92 12 12 C11.01 12 10.02 12 9 12 C9.33 9.69 9.66 7.38 10 5 C6.91190305 3.23537317 5.76687864 3 2 3 C1.34 2.67 0.68 2.34 0 2 C0 1.34 0 0.68 0 0 Z " fill="#172E4B" transform="translate(364,178)"/>
<path d="M0 0 C2.31 0 4.62 0 7 0 C7.33 1.65 7.66 3.3 8 5 C6.02 5.33 4.04 5.66 2 6 C0 3 0 3 0 0 Z " fill="#12305D" transform="translate(84,214)"/>
<path d="M0 0 C3.96 0 7.92 0 12 0 C11.67 1.32 11.34 2.64 11 4 C11 3.01 11 2.02 11 1 C8.36 1.33 5.72 1.66 3 2 C2.67 5.63 2.34 9.26 2 13 C1.34 13 0.68 13 0 13 C0 8.71 0 4.42 0 0 Z " fill="#142C4A" transform="translate(374,77)"/>
<path d="M0 0 C0.66 0.33 1.32 0.66 2 1 C1.67 3.31 1.34 5.62 1 8 C-3.29 8 -7.58 8 -12 8 C-12 7.34 -12 6.68 -12 6 C-10.948125 6.04125 -9.89625 6.0825 -8.8125 6.125 C-5.25989827 6.00852125 -3.15133359 5.52791932 0 4 C0 2.68 0 1.36 0 0 Z " fill="#152C4A" transform="translate(682,129)"/>
<path d="M0 0 C1.50559539 1.96382007 2.89131683 3.78263366 4 6 C4.33 4.02 4.66 2.04 5 0 C5.66 0.33 6.32 0.66 7 1 C7.36923077 7.52307692 7.36923077 7.52307692 5.5 9.9375 C5.005 10.288125 4.51 10.63875 4 11 C3.67 9.68 3.34 8.36 3 7 C2.34 7 1.68 7 1 7 C0.34 5.02 -0.32 3.04 -1 1 C-0.67 0.67 -0.34 0.34 0 0 Z " fill="#193150" transform="translate(369,93)"/>
<path d="M0 0 C0.66 0 1.32 0 2 0 C2 3.3 2 6.6 2 10 C-1.63 10 -5.26 10 -9 10 C-9 9.34 -9 8.68 -9 8 C-5.71023192 6.90341064 -4.28696233 7.20046862 -1 8 C-0.67 5.36 -0.34 2.72 0 0 Z " fill="#192B46" transform="translate(551,227)"/>
<path d="M0 0 C0.99 0 1.98 0 3 0 C3.67220351 1.93558599 4.33758077 3.87354372 5 5.8125 C5.556875 7.43091797 5.556875 7.43091797 6.125 9.08203125 C7 12 7 12 7 15 C7.99 15.33 8.98 15.66 10 16 C9.01 16.33 8.02 16.66 7 17 C4.3184721 13.92307254 3.57912193 11.80265337 3.3125 7.75 C3.24675781 6.85796875 3.18101562 5.9659375 3.11328125 5.046875 C3.07589844 4.37140625 3.03851563 3.6959375 3 3 C2.01 2.67 1.02 2.34 0 2 C0 1.34 0 0.68 0 0 Z " fill="#162D4C" transform="translate(324,77)"/>
<path d="M0 0 C1.80610256 1.64191142 2.90583244 2.74103922 3.75 5.0625 C5.73595675 8.14073297 8.57067428 8.23792762 12 9 C10 11 10 11 6.875 11.125 C5.92625 11.08375 4.9775 11.0425 4 11 C3.32591692 9.73308493 2.66099503 8.46129251 2 7.1875 C1.62875 6.47980469 1.2575 5.77210938 0.875 5.04296875 C0 3 0 3 0 0 Z " fill="#112E4D" transform="translate(745,226)"/>
<path d="M0 0 C2.97 0.495 2.97 0.495 6 1 C6.19573608 2.43640171 6.38127816 3.87419504 6.5625 5.3125 C6.66691406 6.11300781 6.77132813 6.91351563 6.87890625 7.73828125 C7 10 7 10 6 13 C3.625 14.3125 3.625 14.3125 1 15 C0.01 14.34 -0.98 13.68 -2 13 C-0.35 12.67 1.3 12.34 3 12 C3.93786082 6.94990405 3.93786082 6.94990405 3 2 C2.01 1.34 1.02 0.68 0 0 Z " fill="#17304C" transform="translate(411,87)"/>
<path d="M0 0 C3.375 0.3125 3.375 0.3125 7 1 C9.30672095 4.46008142 9.48134006 6.92481479 10 11 C10.33 11.66 10.66 12.32 11 13 C9.68 13.33 8.36 13.66 7 14 C7.061875 12.741875 7.12375 11.48375 7.1875 10.1875 C7.20390849 6.92551633 7.20390849 6.92551633 5.75 4.0625 C3.83875922 2.90210381 2.19702465 2.37879735 0 2 C0 1.34 0 0.68 0 0 Z " fill="#132A45" transform="translate(451,85)"/>
<path d="M0 0 C3 1 3 1 4.6875 4 C6.40436529 8.30110524 6.27936157 12.43709444 6 17 C3.4502185 12.11470435 2 7.54842611 2 2 C1.34 2 0.68 2 0 2 C0 1.34 0 0.68 0 0 Z " fill="#172F4D" transform="translate(456,210)"/>
<path d="M0 0 C0.99 0.495 0.99 0.495 2 1 C2.59765625 3.8359375 2.59765625 3.8359375 3.0625 7.375 C3.51516268 10.7493945 3.92283301 13.76849904 5 17 C4.01 17.33 3.02 17.66 2 18 C1.6603981 16.12612523 1.32861309 14.25083303 1 12.375 C0.7215625 10.80878906 0.7215625 10.80878906 0.4375 9.2109375 C0.01284203 6.09425135 -0.07545206 3.14069188 0 0 Z " fill="#1A2D4E" transform="translate(521,205)"/>
<path d="M0 0 C0.33 0 0.66 0 1 0 C1.33 2.97 1.66 5.94 2 9 C-0.97 9 -3.94 9 -7 9 C-7 8.34 -7 7.68 -7 7 C-5.824375 6.6596875 -5.824375 6.6596875 -4.625 6.3125 C-1.78125 5.21875 -1.78125 5.21875 -0.6875 2.375 C-0.460625 1.59125 -0.23375 0.8075 0 0 Z " fill="#0E2D52" transform="translate(719,228)"/>
<path d="M0 0 C0.66 0 1.32 0 2 0 C3.28571429 8.57142857 3.28571429 8.57142857 2 12 C0.02 12 -1.96 12 -4 12 C-4 11.34 -4 10.68 -4 10 C-2.35 10 -0.7 10 1 10 C0.67 9.01 0.34 8.02 0 7 C-0.03954234 4.66700175 -0.04401732 2.33291811 0 0 Z " fill="#172E4E" transform="translate(327,206)"/>
<path d="M0 0 C0.66386719 0.15597656 1.32773437 0.31195313 2.01171875 0.47265625 C2.89472656 0.66730469 3.77773438 0.86195313 4.6875 1.0625 C5.99267578 1.35833984 5.99267578 1.35833984 7.32421875 1.66015625 C10.16001276 2.02032279 12.24789982 1.70909969 15 1 C15 1.99 15 2.98 15 4 C10.38 4 5.76 4 1 4 C0.67 2.68 0.34 1.36 0 0 Z " fill="#182B47" transform="translate(458,133)"/>
<path d="M0 0 C0.66 0 1.32 0 2 0 C1.125 4.75 1.125 4.75 0 7 C-1.98 7 -3.96 7 -6 7 C-6 6.01 -6 5.02 -6 4 C-4.35 3.67 -2.7 3.34 -1 3 C-0.67 2.01 -0.34 1.02 0 0 Z " fill="#0C3255" transform="translate(422,229)"/>
<path d="M0 0 C0.81210937 0.46019531 0.81210937 0.46019531 1.640625 0.9296875 C4.34450508 2.15628211 6.82462658 2.63743776 9.75 3.125 C10.73484375 3.29257813 11.7196875 3.46015625 12.734375 3.6328125 C13.85585938 3.81457031 13.85585938 3.81457031 15 4 C15 4.33 15 4.66 15 5 C10.38 5 5.76 5 1 5 C0.67 3.35 0.34 1.7 0 0 Z " fill="#15273F" transform="translate(435,132)"/>
<path d="M0 0 C0.33 0 0.66 0 1 0 C1.0814222 2.22855574 1.13938079 4.45797655 1.1875 6.6875 C1.22230469 7.92886719 1.25710938 9.17023438 1.29296875 10.44921875 C0.98212299 14.21666932 0.2772857 16.02794917 -2 19 C-2.66 19.33 -3.32 19.66 -4 20 C-3.79503906 19.39414063 -3.59007812 18.78828125 -3.37890625 18.1640625 C-1.4279788 12.09658479 -0.3922385 6.35696876 0 0 Z " fill="#1A2E4E" transform="translate(471,87)"/>
<path d="M0 0 C0.33 0 0.66 0 1 0 C1 4.95 1 9.9 1 15 C0.34 15 -0.32 15 -1 15 C-1 12.03 -1 9.06 -1 6 C-1.66 5.67 -2.32 5.34 -3 5 C-2.34 5 -1.68 5 -1 5 C-0.67 3.35 -0.34 1.7 0 0 Z " fill="#183054" transform="translate(573,212)"/>
<path d="M0 0 C0.66 0.33 1.32 0.66 2 1 C2.125 4.375 2.125 4.375 2 8 C1.34 8.66 0.68 9.32 0 10 C-0.99 10 -1.98 10 -3 10 C-2.49287967 6.28111761 -1.88391785 3.26545761 0 0 Z " fill="#B10E0F" transform="translate(160,186)"/>
<path d="M0 0 C0.33 1.65 0.66 3.3 1 5 C-0.98 5.33 -2.96 5.66 -5 6 C-5.33 4.68 -5.66 3.36 -6 2 C-2.25 0 -2.25 0 0 0 Z " fill="#BD0402" transform="translate(131,173)"/>
<path d="M0 0 C0.33 0 0.66 0 1 0 C1 1.98 1 3.96 1 6 C-3.29 5.67 -7.58 5.34 -12 5 C-12 4.67 -12 4.34 -12 4 C-8.04 3.34 -4.08 2.68 0 2 C0 1.34 0 0.68 0 0 Z " fill="#072D52" transform="translate(585,231)"/>
<path d="M0 0 C0.66 0 1.32 0 2 0 C4.6875 2.75 4.6875 2.75 7 6 C6.64453125 8.203125 6.64453125 8.203125 6 10 C4.99106869 8.90398831 3.99311775 7.79786082 3 6.6875 C2.1646875 5.76517578 2.1646875 5.76517578 1.3125 4.82421875 C0 3 0 3 0 0 Z " fill="#162F50" transform="translate(430,198)"/>
<path d="M0 0 C2.64 0 5.28 0 8 0 C8 2.31 8 4.62 8 7 C7.34 6.34 6.68 5.68 6 5 C4.68352881 4.30062468 3.34977849 3.63270867 2 3 C1.34 2.67 0.68 2.34 0 2 C0 1.34 0 0.68 0 0 Z " fill="#152F4B" transform="translate(710,201)"/>
<path d="M0 0 C4.95 0 9.9 0 15 0 C15.33 1.98 15.66 3.96 16 6 C15.01 5.67 14.02 5.34 13 5 C12.67 4.01 12.34 3.02 12 2 C7.71 2 3.42 2 -1 2 C-0.67 1.34 -0.34 0.68 0 0 Z " fill="#152B44" transform="translate(623,77)"/>
<path d="M0 0 C1.98 0 3.96 0 6 0 C6.66 3.3 7.32 6.6 8 10 C7.34 10 6.68 10 6 10 C5.566875 8.906875 5.13375 7.81375 4.6875 6.6875 C3.50504359 3.90591207 2.39199957 1.93638061 0 0 Z " fill="#182944" transform="translate(435,217)"/>
<path d="M0 0 C2.83374881 3.20336822 3.5205537 5.78087253 4 10 C2.68 10 1.36 10 0 10 C-0.95024979 6.30458414 -0.95024979 3.69541586 0 0 Z " fill="#AD1710" transform="translate(185,199)"/>
<path d="M0 0 C4.48605914 1.6199658 7.63610101 3.63610101 11 7 C3.11735941 6.24205379 3.11735941 6.24205379 0 3 C0 2.01 0 1.02 0 0 Z " fill="#162A4A" transform="translate(481,130)"/>
<path d="M0 0 C1.32 0 2.64 0 4 0 C4.0825 0.61875 4.165 1.2375 4.25 1.875 C4.78810733 4.18346804 4.78810733 4.18346804 7 5 C7.66 5.33 8.32 5.66 9 6 C9.625 8.0625 9.625 8.0625 10 10 C2.51708428 3.84965831 2.51708428 3.84965831 0 0 Z " fill="#172E4B" transform="translate(437,208)"/>
<path d="M0 0 C0 3.3 0 6.6 0 10 C-0.99 10.495 -0.99 10.495 -2 11 C-2.33 7.7 -2.66 4.4 -3 1 C-1 0 -1 0 0 0 Z " fill="#0B1D30" transform="translate(408,115)"/>
<path d="M0 0 C0.66 0 1.32 0 2 0 C3.14806378 9.41002278 3.14806378 9.41002278 3 14 C1.20724134 10.88089144 0.65709282 8.32317572 0.375 4.75 C0.30023438 3.85796875 0.22546875 2.9659375 0.1484375 2.046875 C0.09945313 1.37140625 0.05046875 0.6959375 0 0 Z " fill="#19304E" transform="translate(453,110)"/>
<path d="M0 0 C4 4 4 4 4 7 C3.34 7 2.68 7 2 7 C1.67 7.66 1.34 8.32 1 9 C1 7.68 1 6.36 1 5 C0.34 5 -0.32 5 -1 5 C-0.67 3.35 -0.34 1.7 0 0 Z " fill="#0F2C50" transform="translate(633,102)"/>
<path d="M0 0 C0.99 0.99 1.98 1.98 3 3 C2.195625 3.226875 1.39125 3.45375 0.5625 3.6875 C-0.283125 4.120625 -1.12875 4.55375 -2 5 C-2.89386164 7.54775306 -2.89386164 7.54775306 -3 10 C-3.66 9.67 -4.32 9.34 -5 9 C-4.50769231 3.46153846 -4.50769231 3.46153846 -1.9375 1.125 C-1.298125 0.75375 -0.65875 0.3825 0 0 Z " fill="#132B4E" transform="translate(495,84)"/>
<path d="M0 0 C4.62 0 9.24 0 14 0 C13.67 0.99 13.34 1.98 13 3 C12.67 2.67 12.34 2.34 12 2 C10.5444063 1.90141397 9.08392081 1.87027857 7.625 1.875 C6.43777344 1.87113281 6.43777344 1.87113281 5.2265625 1.8671875 C2.82656504 1.91382334 2.82656504 1.91382334 0 3 C0 2.01 0 1.02 0 0 Z " fill="#1D2F4A" transform="translate(650,77)"/>
<path d="M0 0 C0.33 0 0.66 0 1 0 C1.3125 2.25 1.3125 2.25 1 5 C-1.5 7.3125 -1.5 7.3125 -4 9 C-4.33 8.01 -4.66 7.02 -5 6 C-4.34 6 -3.68 6 -3 6 C-2.690625 5.195625 -2.38125 4.39125 -2.0625 3.5625 C-1 1 -1 1 0 0 Z " fill="#0F2E50" transform="translate(499,227)"/>
<path d="M0 0 C0.66 0 1.32 0 2 0 C1.67 4.95 1.34 9.9 1 15 C0.67 15 0.34 15 0 15 C0.01160156 14.24074219 0.02320313 13.48148438 0.03515625 12.69921875 C0.04417969 11.70535156 0.05320312 10.71148437 0.0625 9.6875 C0.07990234 8.20830078 0.07990234 8.20830078 0.09765625 6.69921875 C0.12329862 3.90036151 0.12329862 3.90036151 -1 1 C-0.67 0.67 -0.34 0.34 0 0 Z " fill="#18304C" transform="translate(365,219)"/>
<path d="M0 0 C0.66 0.33 1.32 0.66 2 1 C1.67 2.65 1.34 4.3 1 6 C1.66 6 2.32 6 3 6 C3.33 7.32 3.66 8.64 4 10 C-1.57142857 4.85714286 -1.57142857 4.85714286 -2 1 C-1.34 0.67 -0.68 0.34 0 0 Z " fill="#142C4B" transform="translate(432,226)"/>
<path d="M0 0 C0.22429687 0.64453125 0.44859375 1.2890625 0.6796875 1.953125 C1.82889456 4.24388852 1.82889456 4.24388852 4.3828125 4.609375 C5.74019531 4.67898437 5.74019531 4.67898437 7.125 4.75 C8.03507813 4.80671875 8.94515625 4.8634375 9.8828125 4.921875 C10.58148438 4.94765625 11.28015625 4.9734375 12 5 C12 5.33 12 5.66 12 6 C8.04 6 4.08 6 0 6 C-1 2 -1 2 0 0 Z " fill="#9D2223" transform="translate(146,222)"/>
<path d="M0 0 C1.65 0 3.3 0 5 0 C4.67 0.99 4.34 1.98 4 3 C3.34 2.67 2.68 2.34 2 2 C2.33 2.99 2.66 3.98 3 5 C2.01 5.99 1.02 6.98 0 8 C0 5.36 0 2.72 0 0 Z " fill="#102E4C" transform="translate(429,218)"/>
<path d="M0 0 C0.33 0 0.66 0 1 0 C1.09038099 5.15171623 0.84681133 9.91913204 0 15 C-0.33 15 -0.66 15 -1 15 C-1.91457003 9.43842552 -2.32086397 5.324335 0 0 Z " fill="#162E49" transform="translate(390,192)"/>
<path d="M0 0 C0 0.99 0 1.98 0 3 C-3.375 3.125 -3.375 3.125 -7 3 C-7.66 2.34 -8.32 1.68 -9 1 C-5.92677456 0.08941469 -3.19902639 -0.08886184 0 0 Z " fill="#AB0F0E" transform="translate(135,178)"/>
<path d="M0 0 C0.66 0.33 1.32 0.66 2 1 C2 1.66 2 2.32 2 3 C2.66 3 3.32 3 4 3 C4.33 4.32 4.66 5.64 5 7 C3.68 7.33 2.36 7.66 1 8 C0.34 5.69 -0.32 3.38 -1 1 C-0.67 0.67 -0.34 0.34 0 0 Z " fill="#102958" transform="translate(320,95)"/>
<path d="M0 0 C0.33 0 0.66 0 1 0 C1.66 2.97 2.32 5.94 3 9 C2.34 9 1.68 9 1 9 C-1 7 -1 7 -2 5 C-1.0625 2.375 -1.0625 2.375 0 0 Z " fill="#AD160F" transform="translate(156,196)"/>
<path d="M0 0 C2.05078125 0.03255208 4.1015625 0.06510417 6.15234375 0.09765625 C5.82234375 1.41765625 5.49234375 2.73765625 5.15234375 4.09765625 C5.15234375 3.43765625 5.15234375 2.77765625 5.15234375 2.09765625 C4.38921875 2.30390625 3.62609375 2.51015625 2.83984375 2.72265625 C0.15234375 3.09765625 0.15234375 3.09765625 -2.84765625 1.09765625 C-1.84765625 0.09765625 -1.84765625 0.09765625 0 0 Z " fill="#172E49" transform="translate(752.84765625,177.90234375)"/>
<path d="M0 0 C1.65 0 3.3 0 5 0 C5 0.99 5 1.98 5 3 C4.34 3 3.68 3 3 3 C2.67 3.99 2.34 4.98 2 6 C2 5.01 2 4.02 2 3 C1.34 3 0.68 3 0 3 C0 2.01 0 1.02 0 0 Z " fill="#0D3757" transform="translate(348,182)"/>
<path d="M0 0 C0.99 0 1.98 0 3 0 C4.04449911 3.13349732 3.93423645 3.98968256 3 7 C2.34 7 1.68 7 1 7 C0.67 4.69 0.34 2.38 0 0 Z " fill="#192F4B" transform="translate(370,119)"/>
<path d="M0 0 C0.66 0 1.32 0 2 0 C2.33 1.65 2.66 3.3 3 5 C1.35 5.33 -0.3 5.66 -2 6 C-1.34 4.02 -0.68 2.04 0 0 Z " fill="#09365A" transform="translate(89,214)"/>
<path d="M0 0 C0 0.66 0 1.32 0 2 C-2.64 2.33 -5.28 2.66 -8 3 C-7.67 2.01 -7.34 1.02 -7 0 C-3.86650268 -1.04449911 -3.01031744 -0.93423645 0 0 Z " fill="#20354B" transform="translate(93,212)"/>
</svg>
